<?xml version="1.0" standalone="no"?>
<!DOCTYPE svg PUBLIC "-//W3C//DTD SVG 1.1//EN" "http://www.w3.org/Graphics/SVG/1.1/DTD/svg11.dtd" >
<svg xmlns="http://www.w3.org/2000/svg">
<metadata>
Created by FontForge 20120731 at Fri Dec 18 00:00:01 2015
 By Ads
</metadata>
<defs>
<font id="iconfont" horiz-adv-x="1024" >
  <font-face 
    font-family="iconfont"
    font-weight="500"
    font-stretch="normal"
    units-per-em="1024"
    panose-1="2 0 6 3 0 0 0 0 0 0"
    ascent="896"
    descent="-128"
    x-height="792"
    bbox="0 -128 1026 896.011"
    underline-thickness="50"
    underline-position="-100"
    unicode-range="U+0078-E6D1"
  />
<missing-glyph horiz-adv-x="374" 
d="M34 0v682h272v-682h-272zM68 34h204v614h-204v-614z" />
    <glyph glyph-name=".notdef" horiz-adv-x="374" 
d="M34 0v682h272v-682h-272zM68 34h204v614h-204v-614z" />
    <glyph glyph-name=".null" horiz-adv-x="0" 
 />
    <glyph glyph-name="nonmarkingreturn" horiz-adv-x="341" 
 />
    <glyph glyph-name="x" unicode="x" horiz-adv-x="1001" 
d="M281 543q-27 -1 -53 -1h-83q-18 0 -36.5 -6t-32.5 -18.5t-23 -32t-9 -45.5v-76h912v41q0 16 -0.5 30t-0.5 18q0 13 -5 29t-17 29.5t-31.5 22.5t-49.5 9h-133v-97h-438v97zM955 310v-52q0 -23 0.5 -52t0.5 -58t-10.5 -47.5t-26 -30t-33 -16t-31.5 -4.5q-14 -1 -29.5 -0.5
t-29.5 0.5h-32l-45 128h-439l-44 -128h-29h-34q-20 0 -45 1q-25 0 -41 9.5t-25.5 23t-13.5 29.5t-4 30v167h911zM163 247q-12 0 -21 -8.5t-9 -21.5t9 -21.5t21 -8.5q13 0 22 8.5t9 21.5t-9 21.5t-22 8.5zM316 123q-8 -26 -14 -48q-5 -19 -10.5 -37t-7.5 -25t-3 -15t1 -14.5
t9.5 -10.5t21.5 -4h37h67h81h80h64h36q23 0 34 12t2 38q-5 13 -9.5 30.5t-9.5 34.5q-5 19 -11 39h-368zM336 498v228q0 11 2.5 23t10 21.5t20.5 15.5t34 6h188q31 0 51.5 -14.5t20.5 -52.5v-227h-327z" />
    <glyph glyph-name="uniE602" unicode="&#xe602;" 
d="M512 0q160 0 272 112t112 272t-112 272t-272 112t-272 -112t-112 -272t112 -272t272 -112zM512 504q34 0 57 -23t23 -57q0 -24 -11 -40l-69 -120l-69 120q-11 20 -11 40q0 34 23 57t57 23z" />
    <glyph glyph-name="uniE603" unicode="&#xe603;" 
d="M512 -32q-172 0 -294 122t-122 294t122 294t294 122t294 -122t122 -294t-122 -294t-294 -122zM512 736q-145 0 -248.5 -103.5t-103.5 -248.5t103.5 -248.5t248.5 -103.5t248.5 103.5t103.5 248.5t-103.5 248.5t-248.5 103.5zM544 288q-25 0 -48 13l-144 83l144 83
q7 4 15 7t16 4.5t17 1.5q40 0 68 -28t28 -68t-28 -68t-68 -28zM480 384l48 -27q4 -3 7.5 -4t8.5 -1q13 0 22.5 9.5t9.5 22.5t-9.5 22.5t-22.5 9.5q-9 -1 -16 -5z" />
    <glyph glyph-name="uniE604" unicode="&#xe604;" 
d="M128 384q0 -160 112 -272t272 -112t272 112t112 272t-112 272t-272 112t-272 -112t-112 -272zM632 384q0 -34 -23 -57t-57 -23q-11 0 -21.5 2.5t-18.5 8.5l-120 69l120 69q20 11 40 11q34 0 57 -23t23 -57z" />
    <glyph glyph-name="uniE608" unicode="&#xe608;" 
d="M766 680h-8q-30 68 -92.5 110t-139.5 42q-62 0 -116.5 -28.5t-89.5 -78.5t-45 -112q-24 8 -48 8q-67 0 -115 -49t-48 -117.5t48.5 -117.5t116.5 -49h536h1q40 0 76 15.5t61.5 42t41 63t15.5 76.5q0 23 -5 45t-14.5 41t-23 36t-30 30.5t-35.5 23t-41 14.5t-45 5zM352 160
q0 13 -9.5 22.5t-22.5 9.5q0 13 -9.5 22.5t-22.5 9.5t-22.5 -9.5t-9.5 -22.5q-13 0 -22.5 -9.5t-9.5 -22.5t9.5 -22.5t22.5 -9.5q0 -13 9.5 -22.5t22.5 -9.5t22.5 9.5t9.5 22.5q13 0 22.5 9.5t9.5 22.5zM576 160q0 13 -9.5 22.5t-22.5 9.5q0 13 -9.5 22.5t-22.5 9.5
t-22.5 -9.5t-9.5 -22.5q-13 0 -22.5 -9.5t-9.5 -22.5t9.5 -22.5t22.5 -9.5v0q0 -13 9.5 -22.5t22.5 -9.5t22.5 9.5t9.5 22.5q13 0 22.5 9.5t9.5 22.5zM438 32v0q0 13 -9 22.5t-23 9.5q-13 0 -22.5 -9.5t-9.5 -22.5v0q-13 0 -22.5 -9.5t-9.5 -22.5t9.5 -22.5t22.5 -9.5
q0 -13 9.5 -22.5t22.5 -9.5q14 0 23 9.5t9 22.5q14 0 23 9.5t9 22.5t-9 22.5t-23 9.5zM650 32q0 13 -9.5 22.5t-22.5 9.5q-7 0 -13 -2.5t-10 -7t-6.5 -10.5t-2.5 -12q-9 0 -16.5 -4.5t-11.5 -11.5t-4 -16q0 -13 9 -22.5t23 -9.5q0 -13 9 -22.5t23 -9.5q6 0 12 2.5t10.5 7
t7 10.5t2.5 12q8 0 15.5 4.5t12 11.5t4.5 16q0 13 -9.5 22.5t-22.5 9.5zM768 192q0 13 -9.5 22.5t-22.5 9.5t-22.5 -9.5t-9.5 -22.5q-13 0 -22.5 -9.5t-9.5 -22.5t9.5 -22.5t22.5 -9.5q0 -13 9.5 -22.5t22.5 -9.5t22.5 9.5t9.5 22.5q13 0 22.5 9.5t9.5 22.5t-9.5 22.5
t-22.5 9.5z" />
    <glyph glyph-name="uniE609" unicode="&#xe609;" 
d="M795 582q-19 37 -48 66.5t-63.5 50.5t-74 32t-81.5 11q-51 0 -99 -16.5t-86.5 -46.5t-66.5 -72t-41 -90q-8 1 -27 1q-86 0 -147 -60.5t-61 -147t61 -147.5t147 -61h80q13 0 22.5 9.5t9.5 22.5q0 7 -2.5 13t-7 10t-10.5 6.5t-12 2.5h-80q-60 0 -102 42t-42 102t42 102
t102 42h11q5 0 10.5 -1t10.5 -2t10 -3l35 -11l5 37q13 87 81 145.5t155 58.5q47 0 90 -17.5t77 -49.5t53 -75l9 -19l26 1h3q73 0 124.5 -51t51.5 -125q0 -72 -51.5 -124t-124.5 -52h-48q-13 0 -22.5 -9t-9.5 -23q0 -6 2.5 -12t7 -10.5t10.5 -7t12 -2.5h48q100 0 170 70.5
t70 169.5q0 63 -30.5 117.5t-83 87t-115.5 35.5zM618 221l-74 -74v275q0 9 -4.5 16.5t-11.5 11.5t-16 4q-13 0 -22.5 -9t-9.5 -23v-275l-74 74q-4 5 -10 7t-12 2t-12 -2t-10 -7q-10 -10 -10 -22.5t10 -22.5l150 -150l150 150q7 6 9 14t0 16t-9 15q-3 4 -7.5 6t-9.5 3t-10 0
t-9.5 -3t-7.5 -6z" />
    <glyph glyph-name="uniE60A" unicode="&#xe60a;" 
d="M662 237q-4 5 -10 7t-12 2t-12 -2t-10 -7l-74 -74v275q0 9 -4.5 16.5t-11.5 11.5t-16 4q-13 0 -22.5 -9t-9.5 -23v-275l-74 74q-4 5 -10 7t-12 2t-12 -2t-10 -7q-10 -10 -10 -22.5t10 -22.5l150 -150l150 150q10 10 10 22.5t-10 22.5zM784 566h-8q-13 29 -31.5 53.5
t-42.5 44t-51.5 33.5t-58.5 21.5t-64 7.5q-40 0 -78 -11t-70 -32.5t-57 -50t-41.5 -64t-22.5 -74.5q-26 8 -51 8q-73 0 -124.5 -51t-51.5 -125q0 -48 23.5 -88.5t64 -64t88.5 -23.5h80h24q-24 27 -24 64q0 8 1 15.5t3.5 14.5t6 13.5t8 12.5t10.5 12q13 13 30.5 20.5
t36.5 7.5h4h6q2 0 4.5 -0.5t4.5 -1t4.5 -1t4.5 -1t4 -0.5v132q0 40 28 68t68 28t68 -28t28 -68v-132l10 2q5 1 10.5 1.5t11.5 0.5q41 0 67 -28q29 -29 29 -68q0 -37 -24 -64h24h46h2q86 0 147 61t61 147.5t-61 147t-147 60.5z" />
    <glyph glyph-name="uniE60B" unicode="&#xe60b;" 
d="M208 149q-57 0 -104.5 27.5t-75.5 75.5t-28 105q0 86 61 147t147 61q18 0 27 -2q25 99 107.5 162.5t185.5 63.5q55 0 106.5 -19.5t93 -56t67.5 -84.5q95 -5 162 -75t67 -165q0 -32 -8 -62t-23 -56.5t-35.5 -48t-47 -38t-56.5 -26.5q-13 -3 -24.5 3t-15.5 18q-2 9 0 17
t7.5 14.5t13.5 8.5q55 17 90 64t35 104q0 36 -14 68.5t-37.5 56t-56 37.5t-68.5 14h-3h-5h-21l-8 19q-29 65 -88.5 104t-130.5 39q-89 0 -156.5 -58.5t-80.5 -146.5l-5 -37l-35 11q-10 4 -20 5.5t-21 1.5q-60 0 -102 -42t-42 -102t42 -102t102 -42q13 0 22.5 -9.5t9.5 -22.5
t-10.5 -22.5t-23.5 -9.5zM525 -21q-61 0 -112.5 30t-81.5 82t-30 112q0 93 65.5 158.5t158.5 65.5q60 0 112 -30t82 -81.5t30 -112.5v-7q0 -2 -0.5 -5.5t-0.5 -7t-1 -5.5q-1 -14 -11.5 -22t-23.5 -7q-9 1 -15.5 6t-10.5 12.5t-3 16.5q0 3 1 9t1 9q0 66 -47 113t-113 47
t-113 -47t-47 -113t47 -113t113 -47q67 0 113 46q7 6 15 8.5t16 0t14 -8.5q10 -10 10 -22.5t-10 -22.5q-66 -64 -158 -64zM722 133l-111 99q-10 9 -10.5 22t9.5 23q5 6 13 8.5t16.5 1t14.5 -8.5l55 -49l38 59q7 11 20.5 14t24.5 -4.5t14 -20.5t-4 -24z" />
    <glyph glyph-name="uniE60C" unicode="&#xe60c;" 
d="M792 314q-21 13 -39 -3q-3 -4 -6 -7l-11 -16q-22 68 -80.5 111.5t-132.5 43.5q-60 0 -112 -30t-82 -81.5t-30 -112t30 -112.5t82 -82t112 -30q22 0 44 4.5t42 13t38.5 20.5t34.5 28q9 9 9 22t-9 23q-7 6 -15 8t-16 0t-14 -8q-15 -16 -33.5 -26t-38.5 -15.5t-42 -5.5
q-66 0 -113 47t-47 113t47 113t113 47q50 0 90.5 -28t58.5 -73l-19 18q-7 6 -15 7.5t-16.5 -0.5t-13.5 -9q-3 -3 -5 -8t-2.5 -10t0 -9.5t3 -9t6.5 -7.5l110 -100l80 120q3 4 5 8.5t2 9.5t-2 9.5t-5 8.5t-8 8zM784 613h-8q-33 72 -99.5 116t-148.5 44q-29 0 -57 -6t-52.5 -17
t-47 -27t-41 -36t-33 -43t-24.5 -49t-14 -54q-26 8 -51 8q-73 0 -124.5 -51.5t-51.5 -124.5q0 -48 23.5 -88.5t64 -64t88.5 -23.5h29q0 2 -0.5 5.5t-0.5 5.5t-0.5 5.5t-0.5 5.5q0 78 39 144.5t105 105t144 38.5q49 0 93.5 -15t81.5 -43.5t64 -67.5q2 0 4 0.5t4 0.5h4
q30 0 53 -16q16 -10 26.5 -25.5t15.5 -34.5q7 -41 -15 -72l-20 -31q1 1 2.5 1.5t3.5 1t3 0.5q66 24 107.5 77t41.5 122q0 86 -61 147t-147 61z" />
    <glyph glyph-name="uniE60D" unicode="&#xe60d;" 
d="M795 576q-38 73 -110.5 116.5t-156.5 43.5q-51 0 -99 -17t-86.5 -46.5t-66.5 -71.5t-41 -91q-9 2 -27 2q-86 0 -147 -61t-61 -147t61 -147t147 -61h144q13 0 22.5 9.5t9.5 22.5t-9.5 22.5t-22.5 9.5h-144q-60 0 -102 42t-42 102t42 102t102 42q8 0 14.5 -0.5t13.5 -2
t14 -3.5l35 -12l5 37q14 88 81.5 146.5t156.5 58.5q35 0 68.5 -10t62 -28.5t51.5 -45t37 -58.5l10 -20l25 2h4q73 0 124.5 -51.5t51.5 -124.5t-51.5 -124.5t-123.5 -51.5h-115q-13 0 -22.5 -9.5t-9.5 -22.5t9.5 -22.5t22.5 -9.5h112q100 0 170 70t70 170q0 96 -66.5 165.5
t-162.5 74.5zM640 256q6 0 12 2.5t10 7.5q4 3 6 6.5t3 7.5t1 8t-1 8t-3 7.5t-6 6.5l-150 151l-150 -151q-5 -4 -7.5 -10t-2.5 -12t2.5 -12t7.5 -10q9 -10 22 -10t22 10l74 73v-275q0 -13 9.5 -22.5t22.5 -9.5t22.5 9.5t9.5 22.5v275l74 -73q9 -10 22 -10z" />
    <glyph glyph-name="uniE60E" unicode="&#xe60e;" 
d="M662 326l-150 151l-150 -151q-4 -3 -6 -6.5t-3 -7.5t-1 -8t1 -8t3 -7.5t6 -6.5q9 -10 22 -10t22 10l74 73v-275q0 -13 9.5 -22.5t22.5 -9.5t22.5 9.5t9.5 22.5v275l74 -73q9 -10 22 -10q6 0 12 2.5t10 7.5q10 9 10 22t-10 22zM784 560h-8q-33 72 -99.5 116t-148.5 44
q-40 0 -78 -11.5t-70 -32.5t-57 -49.5t-41.5 -64t-22.5 -74.5q-26 8 -51 8q-73 0 -124.5 -51.5t-51.5 -124.5t51.5 -124.5t124.5 -51.5h144h64v69q-15 -5 -32 -5q-20 0 -37 7.5t-30 21.5q-7 6 -12.5 14t-9 16.5t-5.5 17.5t-2 19t2 19t5.5 17.5t9 16.5t12.5 14l150 151l45 44
l45 -44l150 -151q5 -4 8.5 -9t7 -10.5t6 -11t4 -11.5t2.5 -12.5t1 -12.5q0 -41 -29 -67q-13 -14 -30 -21.5t-37 -7.5q-18 0 -32 5v-69h64h110h2q86 0 147 61t61 147t-61 147t-147 61z" />
    <glyph glyph-name="uniE60F" unicode="&#xe60f;" 
d="M512 -128q-102 0 -196 39t-166 111t-111 166t-39 196q0 51 10 100.5t28.5 95.5t47 88t64.5 78q72 72 166 111t196 39q51 0 100.5 -10t95.5 -28.5t88 -47t78 -64.5q72 -73 111 -166.5t39 -195.5t-39 -196t-111 -166t-166 -111t-196 -39zM512 832q-90 0 -171.5 -34
t-145.5 -97q-86 -86 -116.5 -201.5t0 -231t116.5 -201.5q64 -63 145.5 -97t171.5 -34t171.5 34t145.5 97q63 64 97 145.5t34 171.5t-34 171.5t-97.5 145t-145 97.5t-171.5 34zM333 205l89 267l268 90l-90 -268zM474 422l-39 -116l117 38l38 117z" />
    <glyph glyph-name="uniE610" unicode="&#xe610;" 
d="M512 -32q-172 0 -294 122t-122 294t122 294t294 122t294 -122t122 -294t-122 -294t-294 -122zM512 736q-145 0 -248.5 -103.5t-103.5 -248.5t103.5 -248.5t248.5 -103.5t248.5 103.5t103.5 248.5t-103.5 248.5t-248.5 103.5zM480 288q-40 0 -68 28t-28 68t28 68t68 28
q25 0 48 -13l144 -83l-144 -83q-11 -6 -23 -9.5t-25 -3.5zM480 416q-13 0 -22.5 -9.5t-9.5 -22.5t9.5 -22.5t22.5 -9.5q2 0 4.5 0.5t4.5 1t3.5 1.5t3.5 2l48 27l-48 27q-4 3 -7.5 4t-8.5 1z" />
    <glyph glyph-name="uniE611" unicode="&#xe611;" 
d="M896 384q0 160 -112 272t-272 112t-272 -112t-112 -272t112 -272t272 -112t272 112t112 272zM392 384q0 34 23 57t57 23q11 0 21.5 -2.5t18.5 -8.5l120 -69l-120 -69q-20 -11 -40 -11q-34 0 -57 23t-23 57z" />
    <glyph glyph-name="uniE612" unicode="&#xe612;" 
d="M851 723q-69 69 -158.5 105t-180.5 36t-180.5 -36t-158.5 -105t-105 -158.5t-36 -180.5t36 -180.5t105 -158.5q92 -92 215.5 -125t247 0t215.5 125t125 215.5t0 247t-125 215.5zM584 312l-216 -72l72 216l216 72z" />
    <glyph glyph-name="uniE617" unicode="&#xe617;" 
d="M784 608h-8q-33 72 -99.5 116t-148.5 44q-40 0 -78 -11.5t-70 -32.5t-57 -49.5t-41.5 -64t-22.5 -74.5q-26 8 -51 8q-68 0 -118.5 -46t-57.5 -114h960q0 88 -61.5 156t-146.5 68zM992 320h-960q-13 0 -22.5 -9.5t-9.5 -22.5t9.5 -22.5t22.5 -9.5h960q13 0 22.5 9.5
t9.5 22.5t-9.5 22.5t-22.5 9.5zM928 192h-800q-13 0 -22.5 -9.5t-9.5 -22.5t9.5 -22.5t22.5 -9.5h800q13 0 22.5 9.5t9.5 22.5t-9.5 22.5t-22.5 9.5zM448 64h-256q-13 0 -22.5 -9.5t-9.5 -22.5t9.5 -22.5t22.5 -9.5h256q13 0 22.5 9.5t9.5 22.5t-9.5 22.5t-22.5 9.5zM896 64
h-320q-13 0 -22.5 -9.5t-9.5 -22.5t9.5 -22.5t22.5 -9.5h320q13 0 22.5 9.5t9.5 22.5t-9.5 22.5t-22.5 9.5z" />
    <glyph glyph-name="uniE618" unicode="&#xe618;" 
d="M795 736q-25 48 -66.5 84.5t-93 56t-107.5 19.5q-51 0 -99 -17t-86.5 -46.5t-66.5 -71.5t-41 -91q-6 1 -12 1.5t-15 0.5q-86 0 -147 -61t-61 -147t61 -147t147 -61h576q100 0 170 70t70 170q0 96 -66.5 165.5t-162.5 74.5zM784 320h-576q-60 0 -102 42t-42 102t42 102
t102 42q8 0 14.5 -0.5t13.5 -2t14 -3.5l35 -12l5 37q14 88 81.5 146.5t156.5 58.5q28 0 55.5 -6.5t51.5 -19t45.5 -29.5t38.5 -39.5t28 -47.5l10 -20l25 2h4q48 0 88.5 -23.5t64 -64t23.5 -88.5q-2 -73 -53.5 -124.5t-124.5 -51.5zM394 118q-10 -9 -10 -22t10 -22
q4 -5 10 -7.5t12 -2.5h4l4 2h4q2 1 3.5 2t3.5 2.5t3 3.5q10 9 10 22t-10 22q-8 10 -22 10t-22 -10zM288 128q13 0 22 10q5 4 7.5 10t2.5 12q0 13 -10 22q-9 9 -22.5 9t-21.5 -9q-5 -3 -7.5 -9.5t-2.5 -12.5q0 -13 9.5 -22.5t22.5 -9.5zM246.5 9.5q9.5 9.5 9.5 22.5
q0 6 -2.5 12t-7.5 10q-4 5 -10.5 7t-12.5 2t-11.5 -2t-9.5 -7q-10 -7 -10 -22q0 -13 10 -22q3 -4 6.5 -6t7.5 -3t8 -1q13 0 22.5 9.5zM265.5 -118.5q9.5 -9.5 22.5 -9.5h4l4 2h4q2 1 3.5 2t3.5 2.5t3 3.5q10 9 10 22t-10 22q-9 9 -22.5 9t-21.5 -9q-5 -3 -7.5 -9.5
t-2.5 -12.5q0 -13 9.5 -22.5zM416 -32q0 -6 2.5 -12t7.5 -10q9 -10 22 -10h4l6 2q2 0 4 2l4 2l4 4q10 9 10 22t-10 22q-9 9 -22.5 9t-21.5 -9q-5 -3 -7.5 -9.5t-2.5 -12.5zM554 54q-2 -1 -3.5 -3t-3 -4.5t-1.5 -4.5l-2 -6v-4v-4l2 -4v-4q1 -2 2 -3.5t2.5 -3.5t3.5 -3
q9 -10 22 -10q6 0 12 2.5t10.5 7t7 10.5t2.5 12v4l-2 4v4q-1 2 -2 3.5t-2.5 3.5t-3.5 3q-5 7 -13.5 9t-17 0t-13.5 -9zM630 182q-9 9 -22.5 9t-21.5 -9q-2 -1 -3 -2t-2 -2.5t-2 -3.5t-1.5 -3.5t-1 -3.5t-0.5 -3v-4q1 -13 10 -22q9 -10 22 -10q6 0 12 2.5t10 7.5l4 4l2 4
q2 2 2 4l2 6v4q-1 15 -10 22zM790 106l4 4l2 4q2 2 2 4l2 6v4q-1 13 -10 22t-22.5 9t-21.5 -9q-2 -1 -4 -3l-2 -4q-2 -2 -2 -5l-2 -4v-6q1 -13 10 -22q4 -5 10 -7.5t12 -2.5q4 0 8 1t7.5 3t6.5 6zM714 -10q-2 -1 -3.5 -3t-3 -4.5t-1.5 -4.5l-2 -6v-4v-4l2 -4v-4q1 -2 2 -3.5
t2.5 -3.5t3.5 -3q9 -10 22 -10q13 1 22 10q3 2 4.5 4.5t3 5.5t2 6t0.5 6v4l-2 4v4q-1 2 -2 3.5t-2.5 3.5t-3.5 3q-5 7 -13.5 9t-17 0t-13.5 -9zM586 -74q-2 -1 -3.5 -3t-3 -4.5t-1.5 -4.5l-2 -6v-4q1 -13 10 -22q9 -10 22 -10h4q1 0 3 0.5t3.5 1t3.5 1.5l2 2l4 2q1 1 2 3
l4 4l2 4q2 2 2 4l2 6v4v4l-2 4v4q-1 2 -2 3.5t-2.5 3.5t-3.5 3q-5 7 -13.5 9t-17 0t-13.5 -9z" />
    <glyph glyph-name="uniE619" unicode="&#xe619;" 
d="M784 704h-8q-33 72 -99.5 116t-148.5 44q-40 0 -78 -11.5t-70 -32.5t-57 -49.5t-41.5 -64t-22.5 -74.5q-26 8 -51 8q-73 0 -124.5 -51.5t-51.5 -124.5t51.5 -124.5t124.5 -51.5h574h2q86 0 147 61t61 147t-61 147t-147 61zM304 224q-13 0 -22.5 -9.5t-9.5 -22.5
t9.5 -22.5t22.5 -9.5t22.5 9.5t9.5 22.5t-9.5 22.5t-22.5 9.5zM240 96q-13 0 -22.5 -9.5t-9.5 -22.5t9.5 -22.5t22.5 -9.5t22.5 9.5t9.5 22.5t-9.5 22.5t-22.5 9.5zM304 -32q-13 0 -22.5 -9.5t-9.5 -22.5t9.5 -22.5t22.5 -9.5t22.5 9.5t9.5 22.5t-9.5 22.5t-22.5 9.5z
M464 128q0 13 -9.5 22.5t-22.5 9.5t-22.5 -9.5t-9.5 -22.5t9.5 -22.5t22.5 -9.5t22.5 9.5t9.5 22.5zM464 32q-13 0 -22.5 -9.5t-9.5 -22.5t9.5 -22.5t22.5 -9.5t22.5 9.5t9.5 22.5t-9.5 22.5t-22.5 9.5zM624 64q0 13 -9.5 22.5t-22.5 9.5t-22.5 -9.5t-9.5 -22.5t9.5 -22.5
t22.5 -9.5t22.5 9.5t9.5 22.5zM624 224q-13 0 -22.5 -9.5t-9.5 -22.5t9.5 -22.5t22.5 -9.5t22.5 9.5t9.5 22.5t-9.5 22.5t-22.5 9.5zM624 -32q-13 0 -22.5 -9.5t-9.5 -22.5t9.5 -22.5t22.5 -9.5t22.5 9.5t9.5 22.5t-9.5 22.5t-22.5 9.5zM752 32q-13 0 -22.5 -9.5t-9.5 -22.5
t9.5 -22.5t22.5 -9.5t22.5 9.5t9.5 22.5t-9.5 22.5t-22.5 9.5zM784 192q-13 0 -22.5 -9.5t-9.5 -22.5t9.5 -22.5t22.5 -9.5t22.5 9.5t9.5 22.5t-9.5 22.5t-22.5 9.5zM512 416q-13 0 -22.5 -9.5t-9.5 -22.5t9.5 -22.5t22.5 -9.5t22.5 9.5t9.5 22.5t-9.5 22.5t-22.5 9.5z" />
    <glyph glyph-name="uniE61A" unicode="&#xe61a;" 
d="M512 -128q-94 0 -173.5 47.5t-126 128.5t-46.5 176v6q0 3 0.5 7t0.5 7.5t1 6.5q2 39 16 83q15 54 43.5 117.5t61.5 120t66 108.5t63 93t46.5 63t21.5 28l26 32l24 -30q0 -1 3 -4q25 -33 52.5 -71.5t82 -120t99.5 -171t67 -165.5q4 -13 7.5 -26t5.5 -28t3 -29q2 -9 2 -27
q0 -95 -46.5 -176t-126 -128.5t-173.5 -47.5zM512 794q-31 -41 -62 -87t-74 -114.5t-78.5 -141.5t-52.5 -134q-12 -37 -15 -71q0 -4 -0.5 -11.5t-0.5 -10.5q0 -120 82.5 -205t200.5 -85t200.5 85t82.5 205q0 13 -1 21q-2 17 -5 34.5t-8 34.5q-18 62 -53.5 135.5t-79 142.5
t-74.5 115t-62 87z" />
    <glyph glyph-name="uniE61B" unicode="&#xe61b;" 
d="M784 192h-112q-13 0 -22.5 9.5t-9.5 22.5t9.5 22.5t22.5 9.5h114q71 0 122.5 52t51.5 124q0 73 -51.5 124.5t-124.5 51.5h-3l-26 -2l-9 20q-19 42 -52 74.5t-76 50t-90 17.5q-89 0 -156.5 -58.5t-80.5 -146.5l-5 -37l-35 12q-19 6 -43 6q-60 0 -102 -42t-42 -102t42 -102
t102 -42h144q13 0 22.5 -9.5t9.5 -22.5t-9.5 -22.5t-22.5 -9.5h-144q-86 0 -147 61t-61 147t61 147t147 61q18 0 27 -2q25 99 107.5 162.5t185.5 63.5q55 0 106.5 -19.5t93 -55.5t67.5 -85q63 -3 115.5 -36t83 -87t30.5 -117q0 -100 -70 -170t-170 -70zM512 -64
q-53 0 -90.5 38t-37.5 92v9q0 11 6 31q4 11 9 24.5t11.5 26t13.5 25t14 23.5t14 21.5t13 19t10.5 14.5l7.5 10l3 5l26 32l26 -32q4 -4 21 -28t41 -66.5t34 -74.5q0 -2 0.5 -4t1.5 -4t1 -4t0.5 -4.5t1 -4t1 -4.5t0.5 -4v-10q0 -55 -37.5 -93t-90.5 -38zM512 202
q-47 -69 -61 -114q-3 -13 -3 -18v-4q0 -28 18.5 -47t45.5 -19q17 0 32 8.5t23.5 24t8.5 33.5v4v2q0 6 -3 16q-8 25 -25 55t-36 59z" />
    <glyph glyph-name="uniE61C" unicode="&#xe61c;" 
d="M608 74q0 12 -5 24q-8 30 -31 69.5t-41.5 64.5t-18.5 24q-8 -10 -20.5 -27t-37.5 -59t-33 -72q-2 -4 -2.5 -8t-1 -9t-1.5 -7v-8q0 -41 28 -69.5t68 -28.5t68 28.5t28 69.5v8zM784 640h-8q-33 72 -99.5 116t-148.5 44q-40 0 -78 -11.5t-70 -32.5t-57 -49.5t-41.5 -64
t-22.5 -74.5q-26 8 -51 8q-73 0 -124.5 -51.5t-51.5 -124.5t51.5 -124.5t124.5 -51.5h144h59q10 16 22 33t19.5 26.5t8.5 12.5l49 64l50 -64q18 -18 50 -72h62h110h2q86 0 147 61t61 147t-61 147t-147 61z" />
    <glyph glyph-name="uniE61D" unicode="&#xe61d;" 
d="M830 254q-2 43 -16 79q-18 64 -56.5 144t-76 141.5t-82 125.5t-61 86t-26.5 34q-3 -4 -8.5 -11t-22.5 -29.5t-33.5 -46t-40.5 -59t-45.5 -69.5t-45.5 -76t-43.5 -80.5t-36.5 -80.5t-28 -79q-11 -36 -16 -79q0 -4 -1 -12t-1 -12q1 -89 44.5 -164t117 -118.5t160.5 -43.5
t160.5 43.5t116.5 119t43 163.5q0 17 -2 24z" />
    <glyph glyph-name="uniE61E" unicode="&#xe61e;" 
d="M512 -128q-94 0 -173.5 47.5t-126 128.5t-46.5 176v6q0 3 0.5 7t0.5 7.5t1 6.5q2 39 16 83q15 54 43.5 117.5t61.5 120t66 108.5t63 93t46.5 63t21.5 28l26 32l24 -30q0 -1 3 -4q25 -33 52.5 -71.5t82 -120t99.5 -171t67 -165.5q4 -13 7.5 -26t5.5 -28t3 -29q2 -9 2 -27
q0 -95 -46.5 -176t-126 -128.5t-173.5 -47.5zM512 794q-31 -41 -62 -87t-74 -114.5t-78.5 -141.5t-52.5 -134q-12 -37 -15 -71q0 -4 -0.5 -11.5t-0.5 -10.5q0 -120 82.5 -205t200.5 -85t200.5 85t82.5 205q0 13 -1 21q-2 17 -5 34.5t-8 34.5q-18 62 -53.5 135.5t-79 142.5
t-74.5 115t-62 87zM418 61q-9 0 -16 5q-11 7 -14.5 19.5t2.5 23.5l189 313q7 11 20 14.5t23 -2.5q11 -8 14.5 -20.5t-2.5 -23.5l-189 -315q-10 -14 -27 -14zM418 280q-39 0 -67 27.5t-28 66.5q0 40 27.5 67.5t67 27.5t67 -27.5t27.5 -67t-27.5 -67t-66.5 -27.5zM417.5 406
q-13.5 0 -22.5 -9t-9 -22.5t9 -23t22.5 -9.5t23 9.5t9.5 23t-9.5 22.5t-23 9zM606.5 29q-38.5 0 -66.5 27.5t-28 66.5q0 15 4.5 29.5t13.5 26t20.5 20.5t26 14t29.5 5q26 0 47.5 -12.5t34.5 -34.5t13 -48q0 -39 -28 -66.5t-66.5 -27.5zM606 154q-8 0 -15.5 -4.5t-12 -12
t-4.5 -15.5q0 -7 2.5 -13t7 -10t10.5 -6.5t12 -2.5q9 0 16.5 4t11.5 11.5t4 16.5q0 13 -9 22.5t-23 9.5z" />
    <glyph glyph-name="uniE61F" unicode="&#xe61f;" 
d="M416 384zM384 384q0 13 9.5 22.5t22.5 9.5t22.5 -9.5t9.5 -22.5t-9.5 -22.5t-22.5 -9.5t-22.5 9.5t-9.5 22.5zM608 128zM576 128q0 13 9.5 22.5t22.5 9.5t22.5 -9.5t9.5 -22.5t-9.5 -22.5t-22.5 -9.5t-22.5 9.5t-9.5 22.5zM830 254q-2 43 -16 79q-18 64 -56.5 144
t-76 141.5t-82 125.5t-61 86t-26.5 34q-3 -4 -8.5 -11t-22.5 -29.5t-33.5 -46t-40.5 -59t-45.5 -69.5t-45.5 -76t-43.5 -80.5t-36.5 -80.5t-28 -79q-11 -36 -16 -79q0 -4 -1 -12t-1 -12q1 -89 44.5 -164t117 -118.5t160.5 -43.5t160.5 43.5t116.5 119t43 163.5q0 17 -2 24z
M320 384q0 40 28 68t68 28t68 -28t28 -68t-28 -68t-68 -28t-68 28t-28 68zM416 64q-9 0 -16 5q-11 7 -14.5 19.5t3.5 23.5l192 320q7 11 19.5 14.5t23.5 -3.5t14.5 -19.5t-3.5 -23.5l-192 -320q-9 -16 -27 -16zM608 32q-40 0 -68 28t-28 68t28 68t68 28t68 -28t28 -68
t-28 -68t-68 -28z" />
    <glyph glyph-name="uniE620" unicode="&#xe620;" 
d="M229 -128q-38 0 -73 15.5t-60 41t-39.5 61t-14.5 74.5v14q0 6 1 12t2 11.5t2.5 11t3.5 10.5q31 107 154 271l24 30l24 -30q125 -168 155 -271q1 -4 2.5 -8t2.5 -8.5t1.5 -9t1 -9.5t0.5 -10v-14q1 -79 -54 -135.5t-133 -56.5zM229 322q-94 -128 -119 -216q-6 -23 -6 -32
v-10q0 -53 37 -90.5t89.5 -37.5t89.5 37.5t37 90.5v10q-3 20 -7 30q-28 90 -121 218zM795 -128q-78 0 -133.5 56.5t-55.5 135.5v14q2 12 4 23t6 22q32 112 152 269l2 2l24 30l24 -30q125 -168 155 -271q1 -4 2.5 -8t2.5 -8.5t1.5 -9t1 -9.5t0.5 -10v-14q1 -79 -53.5 -135.5
t-132.5 -56.5zM795 322q-15 -21 -30.5 -44.5t-33.5 -53.5t-32.5 -61t-21.5 -57q-6 -23 -7 -32v-10q0 -35 17 -64.5t46 -46.5t64 -17q52 0 89 37.5t37 90.5v10q0 3 -0.5 6t-1 6.5t-1.5 6t-1.5 5.5t-1.5 6q-16 51 -51 109.5t-71 108.5zM512 342q-31 0 -59.5 10t-52 27.5
t-41 41.5t-27 53t-9.5 60v15q3 24 10 45q31 108 153 270l26 32l24 -30q126 -168 155 -271q8 -21 8 -45v-14q1 -80 -54 -137t-133 -57zM512 794q-93 -128 -118 -216q-7 -23 -7 -32v-10q0 -53 37 -90.5t89.5 -37.5t89.5 37.5t37 90.5v10q-1 9 -2.5 16t-3.5 14
q-16 50 -50 107.5t-72 110.5z" />
    <glyph glyph-name="uniE621" unicode="&#xe621;" 
d="M384 80q-4 28 -8 40q-15 50 -53 116t-69 107l-30 41q-13 -17 -33.5 -45t-62 -98.5t-56.5 -122.5q-6 -25 -8 -38v-13q0 -67 47 -115t113 -48t113 48t47 115v13zM960 80q-4 28 -8 40q-15 50 -53 116t-69 107l-30 41q-13 -17 -33.5 -45t-62 -98.5t-56.5 -122.5
q-5 -13 -8 -40v-12q0 -67 47 -114.5t113 -47.5t113 48t47 115v13zM672 560q-3 27 -8 40q-15 50 -53 116t-69 107l-30 41q-2 -3 -6.5 -8.5t-17.5 -23.5t-25.5 -36.5t-28.5 -44.5t-29.5 -50t-25.5 -51.5t-19 -51.5q-5 -13 -8 -40v-12q0 -67 47 -114.5t113 -47.5t113 48t47 115
v13z" />
    <glyph glyph-name="uniE622" unicode="&#xe622;" 
d="M582 122q-22 0 -46 4q-23 7 -35 -14q-2 -5 -3 -10q-7 -22 14 -34q5 -3 10 -4q32 -8 60 -8q106 0 181 75t75 181q0 31 -8 66q-3 13 -14.5 19.5t-23.5 2.5q-13 -4 -19.5 -15t-2.5 -23q6 -22 6 -50q-1 -38 -16.5 -73.5t-41.5 -61t-61.5 -40.5t-74.5 -15zM381 157l-160 -160
q-10 -10 -10 -22.5t10 -22.5q5 -5 10.5 -7.5t11.5 -2.5q13 0 23 10l179 179l1 2l2 1l496 496q6 7 8.5 15t0 16t-8.5 14q-10 10 -22.5 10t-22.5 -10l-160 -160q-69 55 -157 55q-105 0 -180.5 -75.5t-75.5 -180.5q1 -88 55 -157zM582 506q30 0 58.5 -9.5t52.5 -26.5l-267 -267
q-12 16 -19.5 34t-12 37.5t-4.5 39.5q0 89 69 147q54 44 123 45zM582.5 634q6.5 0 12.5 2.5t10 6.5t6.5 10t2.5 13v128q0 6 -2.5 12t-6.5 10.5t-10 7t-12.5 2.5t-12.5 -2.5t-10.5 -7t-7 -10.5t-2.5 -12v-128q0 -7 2.5 -13t7 -10t10.5 -6.5t12.5 -2.5zM102 282h128q14 0 23 9
t9 22.5t-9 23t-23 9.5h-128q-6 0 -12 -2.5t-10.5 -7t-7 -10.5t-2.5 -12q0 -14 9.5 -23t22.5 -9zM310 539q11 -9 23 -9q3 0 6 0.5t5.5 1.5t5.5 3t5 4q10 10 10 22.5t-10 22.5l-91 91q-6 7 -14 9t-16 0t-15 -9q-9 -9 -9 -22t9 -23z" />
    <glyph glyph-name="uniE623" unicode="&#xe623;" 
d="M574.5 642q6.5 0 12.5 2.5t10 6.5t6.5 10t2.5 13v128q0 6 -2.5 12t-6.5 10.5t-10 7t-12.5 2.5t-12.5 -2.5t-10.5 -7t-7 -10.5t-2.5 -12v-128q0 -7 2.5 -13t7 -10t10.5 -6.5t12.5 -2.5zM254 322q0 8 -4 15.5t-11.5 12t-16.5 4.5h-128q-13 0 -22.5 -9.5t-9.5 -23t9.5 -22.5
t22.5 -9h128q14 0 23 9t9 23zM302 547q11 -9 23 -9q3 0 6 0.5t5.5 1.5t5.5 3t5 4q10 10 10 22.5t-10 22.5l-91 91q-10 10 -22.5 10t-22 -9.5t-9.5 -22.5t9 -23zM952 667q-10 10 -22.5 10t-22.5 -10l-158 -158q-74 69 -175 69q-105 0 -180.5 -75.5t-75.5 -180.5
q0 -101 69 -175l-158 -158q-7 -7 -9 -15t0 -16t9 -14q3 -3 6.5 -5t7.5 -3.5t8 -1.5q13 1 23 10l163 163q61 -40 139 -40q106 0 181 75.5t75 180.5q0 25 -4.5 49t-13.5 46.5t-22 43.5l163 164q8 7 7 20t-10 21zM574 514q74 0 128 -50l-270 -270q-50 54 -50 128
q0 79 56.5 135.5t135.5 56.5z" />
    <glyph glyph-name="uniE624" unicode="&#xe624;" 
d="M381 157l-160 -160q-10 -10 -10 -22.5t10 -22.5q5 -5 10.5 -7.5t11.5 -2.5q13 0 23 10l678 678q6 7 8.5 15t0 16t-8.5 14q-10 10 -22.5 10t-22.5 -10l-160 -160q-69 55 -157 55q-105 0 -180.5 -75.5t-75.5 -180.5q1 -88 55 -157zM582 506q30 0 58.5 -9.5t52.5 -26.5
l-267 -267q-12 16 -19.5 34t-12 37.5t-4.5 39.5q0 89 69 147q54 44 123 45zM582.5 634q6.5 0 12.5 2.5t10 6.5t6.5 10t2.5 13v128q0 6 -2.5 12t-6.5 10.5t-10 7t-12.5 2.5t-12.5 -2.5t-10.5 -7t-7 -10.5t-2.5 -12v-128q0 -7 2.5 -13t7 -10t10.5 -6.5t12.5 -2.5zM102 282h128
q14 0 23 9t9 22.5t-9 23t-23 9.5h-128q-6 0 -12 -2.5t-10.5 -7t-7 -10.5t-2.5 -12q0 -14 9.5 -23t22.5 -9zM310 539q11 -9 23 -9q3 0 6 0.5t5.5 1.5t5.5 3t5 4q10 10 10 22.5t-10 22.5l-91 91q-6 7 -14 9t-16 0t-15 -9q-9 -9 -9 -22t9 -23z" />
    <glyph glyph-name="uniE625" unicode="&#xe625;" 
d="M574.5 642q6.5 0 12.5 2.5t10 6.5t6.5 10t2.5 13v128q0 6 -2.5 12t-6.5 10.5t-10 7t-12.5 2.5t-12.5 -2.5t-10.5 -7t-7 -10.5t-2.5 -12v-128q0 -7 2.5 -13t7 -10t10.5 -6.5t12.5 -2.5zM254 322q0 8 -4 15.5t-11.5 12t-16.5 4.5h-128q-13 0 -22.5 -9.5t-9.5 -23t9.5 -22.5
t22.5 -9h128q14 0 23 9t9 23zM302 547q11 -9 23 -9q3 0 6 0.5t5.5 1.5t5.5 3t5 4q10 10 10 22.5t-10 22.5l-91 91q-10 10 -22.5 10t-22 -9.5t-9.5 -22.5t9 -23zM952 667q-10 10 -22.5 10t-22.5 -10l-678 -678q-10 -10 -10 -22.5t9.5 -22.5t22.5 -10q13 1 23 10l678 678
q10 10 10 23.5t-10 21.5zM350 198l348 348q-57 32 -124 32q-105 0 -180.5 -75.5t-75.5 -180.5q0 -17 2.5 -33.5t6.5 -31.5t10 -30t13 -29z" />
    <glyph glyph-name="uniE626" unicode="&#xe626;" 
d="M18 -114q9 -9 22 -9h4q1 0 3 0.5t3.5 1t3.5 1.5l2 2l4 2l2 2l952 951q10 9 10 22t-10 23q-6 6 -14 8t-16 0t-14 -8l-276 -276q-8 30 -21 57.5t-30.5 51.5t-38 45.5t-45 38.5t-51.5 30.5t-57 21.5t-61 11l-59 7l29 -53q13 -25 20 -53.5t7 -56.5q0 -98 -69 -167t-166 -69
q-49 0 -99 23l-53 24l10 -59q15 -103 84 -179.5t168 -104.5l-244 -243q-9 -9 -9 -22.5t9 -22.5zM86 414q38 -8 68 -8q60 0 115.5 24t95 64t63 95t23.5 115q0 8 -0.5 17t-1.5 17t-2.5 16.5t-3 16.5t-3.5 16q53 -16 95.5 -50t70.5 -82t36 -103l-327 -325q-79 12 -140.5 62.5
t-88.5 124.5z" />
    <glyph glyph-name="uniE627" unicode="&#xe627;" 
d="M1014.5 886.5q-6.5 6.5 -14.5 8.5t-16 0t-14 -9l-306 -304q-22 102 -100 172t-182 81q7 -11 12 -23t9 -25t6.5 -25.5t3.5 -26t1 -26.5q0 -112 -78.5 -190.5t-189.5 -78.5q-60 0 -114 26q16 -99 84 -171.5t166 -94.5l-272 -272q-10 -10 -10 -22.5t10 -22.5q9 -11 22 -11
q13 1 22 10l960 960q7 6 9 14t0 16t-8.5 14.5z" />
    <glyph glyph-name="uniE628" unicode="&#xe628;" 
d="M582.5 58q105.5 0 180.5 75t75 180.5t-75 181t-180.5 75.5t-181 -75.5t-75.5 -181t75.5 -180.5t181 -75zM774 314q0 -80 -56 -136t-136 -56q-36 0 -70 13.5t-60 37.5t-42 56q22 -3 32 -3q91 0 155 64.5t64 154.5q0 21 -5 43q53 -21 85.5 -68.5t32.5 -105.5zM390 314
q0 79 56.5 135.5t135.5 56.5h5q2 -4 3 -8l2 -6l2 -8l2 -8v-6q1 -4 1.5 -8t0.5 -8v-8q0 -31 -12 -60t-33 -49.5t-50 -33t-60 -12.5q-27 1 -51 10q-2 3 -2 13zM614 666v128q0 6 -2.5 12t-6.5 10.5t-10 7t-12.5 2.5t-12.5 -2.5t-10.5 -7t-7 -10.5t-2.5 -12v-128q0 -7 2.5 -13
t7 -10t10.5 -6.5t12.5 -2.5t12.5 2.5t10 6.5t6.5 10t2.5 13zM70 313.5q0 -13.5 9.5 -22.5t22.5 -9h128q14 0 23 9t9 22.5t-9 23t-23 9.5h-128q-13 0 -22.5 -9.5t-9.5 -23zM221 675q-10 -9 -10 -22t10 -23l91 -91q10 -9 22 -9q3 0 6 0.5t6 1.5t5.5 3t5.5 4q9 10 9 22.5
t-9 22.5l-91 91q-10 10 -23.5 10t-21.5 -10zM944 630q6 7 8.5 15t0 16t-8.5 14q-10 10 -22.5 10t-22.5 -10l-91 -91q-6 -6 -8.5 -14t0 -16t8.5 -15l2 -3q2 -1 3.5 -1.5t3.5 -1.5t3 -1l4 -2h3h3h4q2 0 4 0.5t4 1.5l4 2q2 1 3.5 2.5t3.5 2.5zM310 88l-91 -91q-9 -10 -9 -22.5
t9 -22.5q10 -9 23 -10q12 0 22 10l91 91q7 7 9 15t0 16t-9 14q-8 8 -21.5 8t-23.5 -8z" />
    <glyph glyph-name="uniE629" unicode="&#xe629;" 
d="M582 570q-105 0 -180.5 -75.5t-75.5 -181t75.5 -180.5t181 -75t180.5 75t75 181q0 69 -34 128t-93 93.5t-129 34.5zM582 122q-52 0 -95.5 25t-68.5 67q19 -4 40 -4q91 0 155 64.5t64 154.5q0 9 -0.5 17.5t-2 17.5t-4.5 18q47 -25 75 -70.5t28 -99.5q0 -22 -4.5 -43.5
t-14 -40t-22.5 -35t-30 -29.5t-35.5 -22.5t-40 -14.5t-44.5 -5zM582.5 634q6.5 0 12.5 2.5t10 6.5t6.5 10t2.5 13v128q0 6 -2.5 12t-6.5 10.5t-10 7t-12.5 2.5t-12.5 -2.5t-10.5 -7t-7 -10.5t-2.5 -12v-128q0 -7 2.5 -13t7 -10t10.5 -6.5t12.5 -2.5zM262 313.5q0 13.5 -9 23
t-23 9.5h-128q-6 0 -12 -2.5t-10.5 -7t-7 -10.5t-2.5 -12q0 -14 9.5 -23t22.5 -9h128q14 0 23 9t9 22.5zM310 539q11 -9 23 -9q3 0 6 0.5t5.5 1.5t5.5 3t5 4q10 10 10 22.5t-10 22.5l-91 91q-6 7 -14 9t-16 0t-15 -9q-9 -9 -9 -22t9 -23zM944 675q-10 10 -22.5 10t-22.5 -10
l-91 -91q-10 -10 -10 -22.5t10 -22.5q10 -9 22 -9q3 0 6 0.5t6 1.5t5.5 3t5.5 4l91 91q10 10 10 23.5t-10 21.5zM310 88l-91 -91q-9 -10 -9 -22.5t9 -22.5q10 -9 23 -10q12 0 22 10l91 91q7 7 9 15t0 16t-9 14q-8 8 -21.5 8t-23.5 -8z" />
    <glyph glyph-name="uniE62A" unicode="&#xe62a;" 
d="M784 704h-8q-33 72 -99.5 116t-148.5 44q-40 0 -78 -11.5t-70 -32.5t-57 -49.5t-41.5 -64t-22.5 -74.5q-26 8 -51 8q-73 0 -124.5 -51.5t-51.5 -124.5t51.5 -124.5t124.5 -51.5h574h2q86 0 147 61t61 147t-61 147t-147 61zM752 224q-13 0 -22.5 -9.5t-9.5 -22.5v-160
q0 -13 9.5 -22.5t22.5 -9.5t22.5 9.5t9.5 22.5v160q0 13 -9.5 22.5t-22.5 9.5zM592 224q-13 0 -22.5 -9.5t-9.5 -22.5v-64q0 -13 9.5 -22.5t22.5 -9.5t22.5 9.5t9.5 22.5v64q0 13 -9.5 22.5t-22.5 9.5zM432 224q-13 0 -22.5 -9.5t-9.5 -22.5v-160q0 -13 9.5 -22.5t22.5 -9.5
t22.5 9.5t9.5 22.5v160q0 13 -9.5 22.5t-22.5 9.5zM272 64q13 0 22.5 9.5t9.5 22.5v96q0 13 -9.5 22.5t-22.5 9.5t-22.5 -9.5t-9.5 -22.5v-96q0 -13 9.5 -22.5t22.5 -9.5zM250 22q-10 -9 -10 -22t9.5 -22.5t22.5 -9.5t22.5 9.5t9.5 22.5t-10 22q-8 10 -22 10t-22 -10z
M410 -42q-10 -7 -10 -22q0 -13 10 -22q4 -5 10 -7.5t12 -2.5h4l4 2h4q2 1 3.5 2t3.5 2.5t3 3.5q10 9 10 22q0 4 -1 8t-3 7.5t-6 6.5q-8 10 -22 10t-22 -10zM570 54q-3 -2 -4.5 -4.5t-3 -5.5t-2 -6t-0.5 -6v-4l2 -4v-4q1 -2 2 -3.5t2.5 -3.5t3.5 -3q9 -10 22 -10q6 0 12 2.5
t10.5 7t7 10.5t2.5 12q-1 15 -10 22q-5 6 -13.5 8.5t-17 0.5t-13.5 -9zM752 -32q-13 0 -22.5 -9.5t-9.5 -22.5t9.5 -22.5t22.5 -9.5t22.5 9.5t9.5 22.5t-9.5 22.5t-22.5 9.5z" />
    <glyph glyph-name="uniE62B" unicode="&#xe62b;" 
d="M795 736q-25 48 -66.5 84.5t-93 56t-107.5 19.5q-51 0 -99 -17t-86.5 -46.5t-66.5 -71.5t-41 -91q-6 1 -12 1.5t-15 0.5q-86 0 -147 -61t-61 -147t61 -147t147 -61h576q100 0 170 70t70 170q0 96 -66.5 165.5t-162.5 74.5zM784 320h-576q-60 0 -102 42t-42 102t42 102
t102 42q8 0 14.5 -0.5t13.5 -2t14 -3.5l35 -12l5 37q14 88 81.5 146.5t156.5 58.5q28 0 55.5 -6.5t51.5 -19t45.5 -29.5t38.5 -39.5t28 -47.5l10 -20l25 2h4q48 0 88.5 -23.5t64 -64t23.5 -88.5q-2 -73 -53.5 -124.5t-124.5 -51.5zM704 192q-13 0 -22.5 -9.5t-9.5 -22.5
v-256v0v-2v-4v-4q0 -1 2 -3q0 -1 0.5 -1.5t0.5 -1.5q1 -2 2 -3l1 -2q1 -1 2 -3l2 -2l1 -1q1 0 2 -1l1 -1l2 -1q1 0 2 -1q2 -1 3 -1h1h4h3q5 0 8 2h1l7 3h1q1 1 3.5 2.5t3.5 2.5l1 1l2 2q1 1 2 2.5t1 2.5q17 37 52 57.5t76 17.5q33 -3 35 29q2 13 -6.5 23.5t-21.5 11.5
q-74 5 -130 -37v168q0 13 -9.5 22.5t-22.5 9.5zM608 64v96q0 13 -9.5 22.5t-22.5 9.5t-22.5 -9.5t-9.5 -22.5v-96q0 -13 9.5 -22.5t22.5 -9.5t22.5 9.5t9.5 22.5zM480 0v160q0 13 -9.5 22.5t-22.5 9.5t-22.5 -9.5t-9.5 -22.5v-160q0 -13 9.5 -22.5t22.5 -9.5t22.5 9.5
t9.5 22.5zM320 192q-13 0 -22.5 -9.5t-9.5 -22.5v-166q-60 44 -130 36q-13 -1 -21.5 -11.5t-7 -23.5t12 -21.5t23.5 -7.5q41 4 76 -17t52 -58l1 -1l2 -4q1 -1 2 -1l1 -2q4 -3 7 -5h1q1 0 3.5 -1t3.5 -2h1q2 0 4.5 -0.5t3.5 -0.5h3h4h1q1 0 2.5 0.5t2.5 0.5q2 0 2 2q1 0 3 1
l1 2l2 2q2 1 2 3l1 1l2 4q0 1 1 3v1l2 2q0 2 2 3v3v2v0v256q-2 13 -11.5 22.5t-22.5 9.5zM425.5 -118.5q9.5 -9.5 22.5 -9.5q3 0 6 0.5t6 1.5l6 4q3 1 4 4q10 9 10 22t-10 22q-5 6 -13.5 8t-17 0t-13.5 -8q-5 -4 -7.5 -10t-2.5 -12q0 -13 9.5 -22.5zM554 -54q9 -10 22 -10
q13 1 22 10q5 4 7.5 10t2.5 12v4l-2 4v4q-1 2 -2 3.5t-2.5 3.5t-3.5 3q-5 6 -13.5 8t-17 0t-13.5 -8l-4 -4l-2 -4q-2 -2 -2 -4l-2 -6v-4v-4l2 -4v-4q1 -2 2 -3.5t2.5 -3.5t3.5 -3zM982 -22l4 4l2 4q2 2 2 4l2 6v4v4l-2 4v4q-1 2 -2 3.5t-2.5 3.5t-3.5 3q-9 10 -22.5 10
t-21.5 -10l-4 -4l-2 -4q-2 -2 -2 -4l-2 -6v-4v-4l2 -4v-4q1 -2 2 -3.5t2.5 -3.5t3.5 -3q9 -10 22 -10q6 0 12 2.5t10 7.5z" />
    <glyph glyph-name="uniE62C" unicode="&#xe62c;" 
d="M784 704h-8q-33 72 -99.5 116t-148.5 44q-40 0 -78 -11.5t-70 -32.5t-57 -49.5t-41.5 -64t-22.5 -74.5q-26 8 -51 8q-73 0 -124.5 -51.5t-51.5 -124.5t51.5 -124.5t124.5 -51.5h574h2q86 0 147 61t61 147t-61 147t-147 61zM576 64q13 0 22.5 9.5t9.5 22.5v96
q0 13 -9.5 22.5t-22.5 9.5t-22.5 -9.5t-9.5 -22.5v-96q0 -13 9.5 -22.5t22.5 -9.5zM448 0q13 0 22.5 9.5t9.5 22.5v160q0 13 -9.5 22.5t-22.5 9.5t-22.5 -9.5t-9.5 -22.5v-160q0 -13 9.5 -22.5t22.5 -9.5zM352 -64v256q0 13 -9.5 22.5t-22.5 9.5t-22.5 -9.5t-9.5 -22.5v-166
q-60 44 -130 36q-13 -1 -21.5 -11.5t-7 -23.5t12 -21.5t23.5 -7.5q41 4 76 -17t52 -58l1 -1l2 -4q1 -1 2 -1l1 -2q4 -3 7 -5h1q1 0 3.5 -1t3.5 -2h1q2 0 4.5 -0.5t3.5 -0.5h3h4h1q1 0 2.5 0.5t2.5 0.5q2 0 2 2q1 0 3 1l1 2l2 2q2 1 2 3q0 1 1 3t2 3q0 2 1 3q0 2 2 4v2l2 1v3
h-2v0zM866 62q-18 2 -35.5 0t-34 -6.5t-31.5 -12t-29 -17.5v166q0 13 -9.5 22.5t-22.5 9.5t-22.5 -9.5t-9.5 -22.5v-256v0v-2v-3l2 -3v0l1 -3q1 -2 2 -3q0 -2 1 -4q1 -1 2 -3q0 -1 2 -3l1 -2l2 -1q1 -1 3 -2q2 0 2 -1l2 -1l2 -1h2h3h3q5 0 8 2h2l6 3h2q1 1 3 2l3 3l2 1
q1 1 2.5 3.5t2.5 3.5q17 37 52 57.5t76 17.5q13 -1 23.5 7t11.5 22q0 14 -8.5 24.5t-21.5 11.5zM426 -42q-10 -9 -10 -22t10 -22q4 -5 10 -7.5t12 -2.5h4l4 2h4q2 1 3.5 2t3.5 2.5t3 3.5q10 9 10 22q0 4 -1 8t-3 7.5t-6 6.5q-8 10 -22 10t-22 -10zM554 22l-4 -4l-2 -4
q-2 -2 -2 -4l-2 -6v-4v-4l2 -4v-4q1 -2 2 -3.5t2.5 -3.5t3.5 -3q9 -10 22 -10q6 0 12 2.5t10.5 7t7 10.5t2.5 12v4l-2 4v4q-1 2 -2 3.5t-2.5 3.5t-3.5 3q-5 7 -13.5 9t-17 0t-13.5 -9zM982 54q-5 7 -13.5 9t-17 0t-13.5 -9l-4 -4l-2 -4q-2 -2 -2 -4l-2 -6v-4v-4l2 -4v-4
q1 -2 2 -3.5t2.5 -3.5t3.5 -3q9 -10 22 -10q6 0 12 2.5t10.5 7t7 10.5t2.5 12v4l-2 4v4q-1 2 -2 3.5t-2.5 3.5t-3.5 3z" />
    <glyph glyph-name="uniE62D" unicode="&#xe62d;" 
d="M176 544q0 -47 21.5 -88t58.5 -67q-8 -17 -12 -34t-4 -35q0 -66 47 -113t113 -47h416q79 0 135.5 56.5t56.5 135.5q0 74 -49.5 128.5t-121.5 61.5q-30 60 -87.5 95t-125.5 35q-48 0 -98 -21q-26 40 -68 62.5t-90 22.5q-79 0 -135.5 -56.5t-56.5 -135.5zM624 608
q54 0 97.5 -29.5t65.5 -79.5l8 -19h21q53 0 90.5 -37.5t37.5 -90.5t-37.5 -90.5t-90.5 -37.5h-416q-40 0 -68 28t-28 68t28 68t68 28q6 0 10 -2l36 -4l2 33q3 34 18 65t38.5 52.5t54.5 34.5t65 13zM472 618q-12 -10 -23.5 -22t-20.5 -25.5t-17 -28t-13.5 -30.5t-8.5 -32
q-53 -5 -96 -40q-16 12 -28 28t-18.5 36t-6.5 40q0 53 37.5 90.5t90.5 37.5q31 0 58.5 -14.5t45.5 -39.5zM400 800v64q0 13 -9.5 22.5t-22.5 9.5t-22.5 -9.5t-9.5 -22.5v-64q0 -13 9.5 -22.5t22.5 -9.5t22.5 9.5t9.5 22.5zM16 544q0 -13 9.5 -22.5t22.5 -9.5h64
q13 0 22.5 9.5t9.5 22.5t-9.5 22.5t-22.5 9.5h-64q-13 0 -22.5 -9.5t-9.5 -22.5zM128 738l37 -37q1 -2 3 -3t3.5 -2.5t3.5 -1.5l4 -2h4q2 -1 4 -1q13 1 23 10q3 4 5.5 8.5t3.5 9t0 9.5t-3.5 9.5t-5.5 8.5l-36 38q-9 10 -22 10t-22 -10q-11 -9 -11.5 -23t9.5 -23z
M526.5 702.5q4.5 -4.5 10.5 -7t12 -2.5q13 1 22 9l37 36q6 6 8.5 14t0 16t-8.5 14q-10 10 -22.5 10t-22.5 -10l-37 -36q-4 -5 -6.5 -10.5t-2.5 -11t2.5 -11.5t7 -10.5zM128 304q10 -9 22 -10q7 0 12.5 2.5t10.5 7.5l37 37q9 9 9 22t-9 23q-5 4 -11 6.5t-12 2.5t-11.5 -2.5
t-10.5 -6.5l-37 -37q-10 -9 -10 -22t10 -23zM816 -32q13 0 22.5 9.5t9.5 22.5v96q0 13 -9.5 22.5t-22.5 9.5t-22.5 -9.5t-9.5 -22.5v-96q0 -13 9.5 -22.5t22.5 -9.5zM688 128q-13 0 -22.5 -9.5t-9.5 -22.5v-32q0 -13 9.5 -22.5t22.5 -9.5t22.5 9.5t9.5 22.5v32
q0 13 -9.5 22.5t-22.5 9.5zM560 128q-13 0 -22.5 -9.5t-9.5 -22.5v-96q0 -13 9.5 -22.5t22.5 -9.5t22.5 9.5t9.5 22.5v96q0 13 -9.5 22.5t-22.5 9.5zM432 32q13 0 22.5 9.5t9.5 22.5v32q0 13 -9.5 22.5t-22.5 9.5t-22.5 -9.5t-9.5 -22.5v-32q0 -13 9.5 -22.5t22.5 -9.5z
M410 -54q9 -10 22 -10h4l6 2q2 0 4 2l4 2l4 4q10 9 10 22t-10 22q-9 9 -22.5 9t-21.5 -9q-5 -3 -7.5 -9.5t-2.5 -12.5t2.5 -12t7.5 -10zM538 -74q-2 -1 -3.5 -3t-3 -4.5t-1.5 -4.5l-2 -6v-4v-4l2 -4v-4q1 -2 2 -3.5t2.5 -3.5t3.5 -3q9 -10 22 -10q6 0 12 2.5t10 7.5l4 4l2 4
q2 2 2 4l2 6v4v4l-2 4v4q-1 2 -2 3.5t-2.5 3.5t-3.5 3q-9 10 -22.5 10t-21.5 -10zM666 -10q-2 -1 -3.5 -3t-3 -4.5t-1.5 -4.5l-2 -6v-4v-4l2 -4v-4q1 -2 2 -3.5t2.5 -3.5t3.5 -3q9 -10 22 -10q13 1 22 10l4 4l2 4q2 2 2 4l2 6v4q-1 13 -10 22q-6 7 -14.5 9t-16.5 0t-13 -9z
M794 -118q9 -10 22 -10q6 0 12 2.5t10 7.5l4 4l2 4q2 2 2 4l2 6v4v4l-2 6q0 2 -2 4l-2 4l-4 4q-6 6 -14.5 8t-16.5 0t-13 -8q-2 -1 -3.5 -3t-3 -4.5t-1.5 -4.5l-2 -6v-4q1 -13 10 -22z" />
    <glyph glyph-name="uniE62E" unicode="&#xe62e;" 
d="M832 128q-13 0 -22.5 -9.5t-9.5 -22.5v-96q0 -13 9.5 -22.5t22.5 -9.5t22.5 9.5t9.5 22.5v96q0 13 -9.5 22.5t-22.5 9.5zM704 128q-13 0 -22.5 -9.5t-9.5 -22.5v-32q0 -13 9.5 -22.5t22.5 -9.5t22.5 9.5t9.5 22.5v32q0 13 -9.5 22.5t-22.5 9.5zM576 128q-13 0 -22.5 -9.5
t-9.5 -22.5v-96q0 -13 9.5 -22.5t22.5 -9.5t22.5 9.5t9.5 22.5v96q0 13 -9.5 22.5t-22.5 9.5zM448 128q-13 0 -22.5 -9.5t-9.5 -22.5v-32q0 -13 9.5 -22.5t22.5 -9.5t22.5 9.5t9.5 22.5v32q0 13 -9.5 22.5t-22.5 9.5zM384 752q13 0 22.5 9.5t9.5 22.5v80q0 13 -9.5 22.5
t-22.5 9.5t-22.5 -9.5t-9.5 -22.5v-80q0 -13 9.5 -22.5t22.5 -9.5zM176 544q0 13 -9.5 22.5t-22.5 9.5h-80q-13 0 -22.5 -9.5t-9.5 -22.5t9.5 -22.5t22.5 -9.5h80q13 0 22.5 9.5t9.5 22.5zM197 686q10 -9 22 -9h4q2 0 4 0.5t4 1.5l4 2q2 1 3.5 2.5t3.5 2.5q4 5 6.5 11
t2.5 12t-2.5 11.5t-6.5 10.5l-52 53q-9 10 -22 10t-22.5 -10t-9.5 -22.5t10 -22.5zM549 677q13 1 22 9l53 52q6 6 8.5 14t0 16t-8.5 14q-10 10 -22.5 10t-22.5 -10l-53 -52q-6 -7 -8 -15t0 -16t8 -14q5 -4 11 -6t12 -2zM197 402l-53 -53q-10 -10 -10 -22.5t10 -22.5
q10 -9 22 -10q7 0 12.5 2.5t10.5 7.5l53 53q9 9 9 22t-9 23q-7 6 -15 8t-16 0t-14 -8zM832 512q-24 57 -76 92.5t-116 35.5q-83 0 -142.5 -56t-65.5 -138q-2 0 -5 0.5t-6.5 1t-6.5 0.5q-52 0 -90 -37.5t-38 -90.5t38 -90.5t90 -37.5h416q66 0 113 47t47 113q2 66 -45 113
t-113 47zM493 661q-22 20 -50 31.5t-59 11.5q-66 0 -113 -47t-47 -113q0 -60 40 -106q11 14 23.5 25.5t27 20.5t31 15.5t33.5 9.5q30 98 114 152zM448 -32zM416 -32q0 13 9.5 22.5t22.5 9.5t22.5 -9.5t9.5 -22.5t-9.5 -22.5t-22.5 -9.5t-22.5 9.5t-9.5 22.5zM576 -96z
M544 -96q0 13 9.5 22.5t22.5 9.5t22.5 -9.5t9.5 -22.5t-9.5 -22.5t-22.5 -9.5t-22.5 9.5t-9.5 22.5zM704 -32zM672 -32q0 13 9.5 22.5t22.5 9.5t22.5 -9.5t9.5 -22.5t-9.5 -22.5t-22.5 -9.5t-22.5 9.5t-9.5 22.5zM832 -96zM800 -96q0 13 9.5 22.5t22.5 9.5t22.5 -9.5
t9.5 -22.5t-9.5 -22.5t-22.5 -9.5t-22.5 9.5t-9.5 22.5z" />
    <glyph glyph-name="uniE62F" unicode="&#xe62f;" horiz-adv-x="1026" 
d="M301 835v-61q0 -6 2 -11.5t6 -9.5t10 -6.5t12 -2.5q8 0 15 4t11.5 11t4.5 15v61q0 6 -2.5 11.5t-6.5 10t-9.5 7t-12.5 2.5q-8 0 -15 -4t-11 -11t-4 -16zM120 534q0 13 -8.5 22t-21.5 9h-60q-12 0 -21 -9t-9 -22t8.5 -21.5t21.5 -8.5h61q6 0 11.5 2.5t9 6.5t6 9.5
t2.5 11.5zM182 683q9 9 9 21.5t-9 21.5l-33 34q-9 8 -21.5 8t-21.5 -8t-9 -21t9 -22l33 -34q5 -5 10 -7t11 -2q16 3 22 9zM514 760l-34 -34q-8 -8 -8 -20.5t8 -22.5q2 -2 4.5 -4t5 -3t5.5 -1.5t6 -0.5q13 1 21 9l33 34q6 5 8 13t0 16t-8 14q-18 21 -41 0zM106 309
q10 -9 20 -10q14 0 21 10l34 33q8 9 8 21.5t-8 22.5q-9 8 -21.5 8t-21.5 -8l-32 -34q-5 -5 -7 -10.5t-2 -11.5t2 -11.5t7 -9.5zM773 534q-19 37 -50 64.5t-69.5 42.5t-80.5 15q-10 0 -19.5 -1t-19 -2.5t-18.5 -3.5t-17.5 -5t-16.5 -7q-17 25 -40.5 43t-52 27.5t-58.5 9.5
q-74 0 -127.5 -53.5t-53.5 -127.5q0 -29 9.5 -56t26 -50t40.5 -40l-4 -8q-2 -4 -3.5 -8.5t-2.5 -9t-2 -9.5t-1.5 -9.5t-1 -9.5t-0.5 -10q0 -62 44 -106t107 -44h392q74 0 127 53t53 128q0 82 -65 136q-43 34 -96 41zM211 534q0 33 16.5 61t44 43.5t59.5 15.5q20 0 38 -6
t33.5 -17.5t26.5 -27.5q-30 -24 -50 -57.5t-29 -71.5q-51 -3 -89 -39q-50 39 -50 99zM754 234h-392q-38 0 -64 26t-26 63t26 63.5t64 26.5q6 0 8 -2l35 -5l1 32q5 65 52.5 109.5t112.5 44.5q50 0 91.5 -27.5t62.5 -74.5l8 -20h21q13 0 26.5 -3t25.5 -9t22.5 -14t18.5 -18.5
t14 -22.5t9.5 -25.5t3.5 -27.5q0 -13 -3.5 -26t-9.5 -24.5t-14 -21.5t-18.5 -18t-22.5 -14t-25.5 -9t-26.5 -3zM632 53q6 0 11.5 2t9.5 6t6.5 10t2.5 12v31q0 12 -8.5 21t-21.5 9q-6 0 -11.5 -2.5t-9.5 -6.5t-6.5 -9.5t-2.5 -11.5v-31q0 -8 4.5 -15t11 -11t14.5 -4zM512 -8
q6 0 11.5 2.5t9.5 6.5t6.5 9.5t2.5 11.5v90q0 8 -3.5 15t-10.5 11t-16 4q-12 0 -21 -8.5t-9 -21.5v-90q0 -12 9 -21t21 -9zM365 -80q1 -1 1.5 -2.5t1.5 -2t2 -1.5q0 -2 1 -2q4 -3 7 -5h1q2 -1 7 -3h1h3l2 -2h3h3h4l2 1l2 1q2 0 2 2q2 0 3 1l2 2l1 1q2 2 2 4l2 1q0 2 1 3l2 4
v2l1 1v3v3v2v0v181q0 12 -8.5 21t-21.5 9q-12 0 -21 -8.5t-9 -21.5v-96q-27 19 -58.5 28t-65.5 7q-12 -1 -20 -10.5t-7 -21.5t10.5 -20.5t21.5 -6.5q19 0 37.5 -5t34.5 -14.5t29 -23.5t21 -31zM933 19q1 12 -7 21.5t-20 10.5q-69 5 -124 -35v96q0 6 -2 11.5t-6 9.5t-10 6.5
t-12 2.5q-12 0 -21 -8.5t-9 -21.5v-181v0v-1v-4v-3q0 -1 1 -3q0 -1 1 -1.5t1 -1.5q0 -2 1 -3l2 -2q0 -2 2 -3l1 -2l2 -1q1 0 1.5 -1t1.5 -1l2 -2h2l2 -1h2h2h3q5 0 8 1h1q4 0 7 4h1q4 3 7 4q0 2 1 2q4 3 4 6q15 35 48 54.5t72 16.5q14 1 24 9t11 21zM491 -88q10 -10 21 -10
q6 0 11.5 2.5t9.5 7.5q9 8 9 21q0 4 -1 7.5t-3 7t-5 6.5q-9 8 -22 8t-21 -8t-8 -21q0 -14 9 -21zM611 -29q10 -9 21 -9q14 1 21 9q9 8 9 21q0 3 -0.5 6t-1.5 5.5t-3 5t-4 4.5q-6 5 -14 7t-16 0t-13 -7q-8 -8 -8 -21q0 -11 9 -21zM973 43q-8 -8 -8 -21q1 -13 9 -20
q10 -10 21 -10q14 0 21 10q10 7 10 20q-1 14 -10 21q-10 9 -22.5 9t-20.5 -9z" />
    <glyph glyph-name="uniE630" unicode="&#xe630;" 
d="M552 129q5 0 10 -1.5t9 -4.5t7 -7t4.5 -9t1.5 -10v-32q0 -8 -4.5 -15.5t-11.5 -12t-16 -4.5q-5 0 -10 2t-9 5t-7 6.5t-4.5 8.5t-1.5 10v32q0 13 9.5 22.5t22.5 9.5zM680 129q5 0 10 -1.5t9 -4.5t6.5 -7t4.5 -9t2 -10v-96q0 -13 -9.5 -22.5t-22.5 -9.5q-5 0 -10 2t-9 5
t-7 6.5t-4.5 8.5t-1.5 10v96q0 24 22 31q5 1 10 1zM776 -94v191q0 13 9 22.5t22.5 9.5t22.5 -9.5t9 -22.5v-102q19 14 40 23t44 12.5t46 1.5q13 -1 21.5 -11.5t7.5 -23.5q-1 -9 -6 -16t-12.5 -10.5t-17.5 -2.5q-40 3 -75 -17.5t-52 -57.5q-1 -1 -2.5 -3.5t-2.5 -3.5l-2 -1
q-3 -3 -6 -5h-2q0 -1 -3 -2l-3 -1h-2q-1 0 -3.5 -1t-4.5 -1v0h-6q-1 0 -3 1t-3 1v0l-2 1q-2 1 -3 2l-2 2q-1 0 -1.5 0.5t-1.5 0.5q0 2 -2 3q0 2 -1 4q-1 1 -2 3q0 1 -1 3v2l-2 1v3v5l2 -1v0zM263 32q70 7 129 -37v102q0 13 9.5 22.5t22.5 9.5q4 0 7.5 -0.5t6.5 -2.5l6 -4
q3 -2 5 -5t3.5 -6t2.5 -6.5t1 -7.5v-191v0v-2v-5v-3q0 -2 -2 -3q0 -1 -0.5 -2t-0.5 -1.5t-1 -1.5t-1 -1.5t-0.5 -1.5t-0.5 -2t-1 -1.5t-1 -1.5q-2 -2 -3 -2l-2 -1q-1 -2 -3 -2l-1 -1q-3 -2 -7 -2h-6v0v0l-8 2h-2q-3 0 -6 3h-2q-1 1 -3 2.5t-3 2.5l-2 1q-1 1 -2 3q-2 3 -3 4
q-16 37 -51.5 57.5t-75.5 17.5q-14 -2 -24 6.5t-12 21.5q0 5 1 9t2.5 7.5t3.5 7t4.5 6t5.5 4.5t6.5 3t7.5 2zM702 -72q5 -5 7.5 -10.5t2.5 -12t-2.5 -12t-7.5 -10.5q-3 -3 -6.5 -5t-7.5 -3t-8 -1q-13 0 -22.5 9.5t-9.5 22.5q0 6 2.5 11.5t6.5 10.5q5 4 11 6t12 2t12 -2
t10 -6zM574 -8q10 -10 10 -23q0 -6 -2.5 -11.5t-7.5 -10.5q-9 -10 -22 -10q-2 0 -4 1h-4l-4 2t-3.5 2t-3.5 2t-3 3q-10 10 -10 22q0 7 2.5 12.5t7.5 10.5q6 5 14.5 7t16.5 0t13 -7zM146 24q6 6 14.5 8.5t16.5 0t14 -8.5q5 -5 7 -11t2 -12q0 -12 -9 -22q-2 -2 -4 -3.5
t-4.5 -2.5t-4.5 -2t-4.5 -1.5t-4.5 -0.5q-13 0 -23 10q-5 5 -7 10.5t-2 11.5q0 13 9 23zM376 752q9 0 16.5 4.5t11.5 12t4 15.5v80q0 13 -9.5 22.5t-22.5 9.5t-22.5 -9.5t-9.5 -22.5v-80q0 -13 9.5 -22.5t22.5 -9.5zM169 544.5q0 13.5 -9.5 22.5t-22.5 9h-80q-13 0 -22.5 -9
t-9.5 -22.5t9.5 -22.5t22.5 -9h80q13 0 22.5 9t9.5 22.5zM189 687q3 -3 7 -5.5t8 -3.5t8 -1q6 0 11.5 2.5t10.5 7.5q4 4 6.5 8.5t3 9t0 9.5t-3 9.5t-6.5 7.5l-51 53q-4 4 -8.5 6.5t-9 3t-9.5 0t-9.5 -3t-8.5 -6.5q-9 -9 -9 -22t9 -23zM541 677q13 0 22 10l53 52q4 4 6 8.5
t3 9.5t0 9.5t-3 9t-6 8.5q-3 3 -7 5.5t-7.5 3.5t-8 1t-8 -1t-7.5 -3.5t-7 -5.5l-53 -53q-9 -9 -9 -22t9 -22q5 -5 11 -7.5t12 -2.5zM189 402l-52 -52q-10 -10 -10 -22.5t9.5 -22.5t22.5 -10q6 0 12 2.5t10 7.5l53 53q10 9 10 22t-10 22.5t-22.5 9.5t-22.5 -10zM824 513
q-25 57 -76.5 92t-115.5 35q-83 0 -142.5 -55.5t-65.5 -137.5q-2 0 -8 1t-9 1q-35 0 -64.5 -17.5t-46.5 -47t-17 -63.5q0 -53 37.5 -90.5t90.5 -37.5h415q66 0 113 47t47 113q1 67 -45.5 113.5t-112.5 46.5zM485 661q-46 43 -109 43q-32 0 -61.5 -12.5t-51 -34t-34.5 -51
t-13 -61.5q0 -61 40 -106q48 59 115 70q30 98 114 152z" />
    <glyph glyph-name="uniE631" unicode="&#xe631;" 
d="M853 702q-32 61 -88.5 95.5t-124.5 34.5q-16 0 -31.5 -2t-30 -5.5t-28.5 -9t-26.5 -12.5t-24.5 -15.5t-22.5 -18.5t-20 -21.5t-17.5 -23.5t-14.5 -25.5t-11.5 -28.5q-90 -10 -158 -72t-89 -152q-24 -3 -47 -12t-42.5 -24t-35 -34.5t-25.5 -42.5q-5 -12 -0.5 -24.5
t16.5 -17.5t24.5 -0.5t17.5 16.5q10 23 27.5 40.5t40 27t47.5 9.5l32 -2l3 29q12 84 76 140.5t148 56.5q68 0 125 -38.5t83 -102.5l10 -22l22 3q2 0 4.5 0.5t5.5 1t6 0.5q29 0 56 -10t48 -27.5t35.5 -42.5t18.5 -53q3 -12 11.5 -19.5t20.5 -7.5h5q13 2 20.5 12.5t5.5 23.5
q-1 3 -1.5 6t-1 5.5t-0.5 4.5q31 16 54 42t35.5 59t12.5 69q0 90 -69 147q-45 37 -102 43zM898 402q-29 49 -80 79t-111 31q-21 44 -55.5 77.5t-77.5 54.5t-91 26q14 30 37.5 52t54.5 34t65 12q54 0 97.5 -29.5t65.5 -79.5l8 -19h21q53 0 90.5 -37.5t37.5 -90.5
q0 -35 -16.5 -64.5t-45.5 -45.5zM960 224q0 13 -9.5 22.5t-22.5 9.5h-896q-13 0 -22.5 -9.5t-9.5 -22.5t9.5 -22.5t22.5 -9.5h896q13 0 22.5 9.5t9.5 22.5zM896 96q0 13 -9.5 22.5t-22.5 9.5h-768q-13 0 -22.5 -9.5t-9.5 -22.5t9.5 -22.5t22.5 -9.5h768q13 0 22.5 9.5
t9.5 22.5zM192 0q-13 0 -22.5 -9.5t-9.5 -22.5t9.5 -22.5t22.5 -9.5h608q13 0 22.5 9.5t9.5 22.5t-9.5 22.5t-22.5 9.5h-608z" />
    <glyph glyph-name="uniE632" unicode="&#xe632;" 
d="M944 272h-896q-13 0 -22.5 -9.5t-9.5 -22.5t9.5 -22.5t22.5 -9.5h896q13 0 22.5 9.5t9.5 22.5t-9.5 22.5t-22.5 9.5zM880 144h-768q-13 0 -22.5 -9.5t-9.5 -22.5t9.5 -22.5t22.5 -9.5h768q13 0 22.5 9.5t9.5 22.5t-9.5 22.5t-22.5 9.5zM816 16h-608q-13 0 -22.5 -9.5
t-9.5 -22.5t9.5 -22.5t22.5 -9.5h608q13 0 22.5 9.5t9.5 22.5t-9.5 22.5t-22.5 9.5zM720 496q-13 0 -19 -2q-28 72 -93 117t-144 45q-98 0 -170 -64.5t-84 -159.5h-2q-48 0 -88 -26.5t-59 -69.5h848q-11 69 -64.5 114.5t-124.5 45.5zM736 560q48 -4 90 -24t74 -53.5
t50 -76.5q27 22 42.5 54.5t15.5 69.5q0 66 -47 113t-113 47q-24 57 -76 92.5t-116 35.5q-37 0 -70.5 -12.5t-60 -33.5t-45.5 -50q81 -8 149 -50.5t107 -111.5z" />
    <glyph glyph-name="uniE633" unicode="&#xe633;" 
d="M352 832v-96q0 -13 9.5 -22.5t22.5 -9.5t22.5 9.5t9.5 22.5v96q0 13 -9.5 22.5t-22.5 9.5t-22.5 -9.5t-9.5 -22.5zM32 448h96q13 0 22.5 9.5t9.5 22.5t-9.5 22.5t-22.5 9.5h-96q-13 0 -22.5 -9.5t-9.5 -22.5t9.5 -22.5t22.5 -9.5zM181 638q5 -4 10.5 -6.5t11.5 -2.5h4
q2 0 4 0.5t4 1.5l4 2q2 1 3.5 2.5t3.5 2.5q4 5 6.5 11t2.5 12t-2.5 11.5t-6.5 10.5l-68 69q-9 8 -22.5 8t-23.5 -8q-10 -10 -10 -22.5t10 -22.5zM611 752l-69 -69q-9 -9 -9 -22t9 -23q11 -9 23 -9q3 0 6 0.5t5.5 1.5t5.5 3t5 4l69 69q10 10 10 22.5t-10 22.5q-10 9 -23 9
t-22 -9zM112 208q10 -10 22 -10q6 0 12 2.5t11 7.5l69 69q9 9 9 22t-9 23q-5 4 -11 6.5t-12 2.5t-11.5 -2.5t-10.5 -6.5l-69 -69q-6 -6 -8.5 -14t0 -16.5t8.5 -14.5zM853 478q-30 60 -87.5 95t-125.5 35q-48 0 -98 -21q-17 26 -42 45.5t-54.5 29.5t-61.5 10
q-79 0 -135.5 -56.5t-56.5 -135.5q0 -47 21.5 -88t58.5 -67q-2 -5 -4.5 -10.5t-3.5 -9t-3 -9.5q-6 -22 13 -35q5 -2 9 -3q2 0 4 -1l4 -1q11 0 19.5 6.5t11.5 17.5q8 31 34 51.5t58 20.5q7 0 10 -2l37 -4l1 33q8 70 59 117.5t119 47.5q21 0 41.5 -5t38.5 -14.5t34 -22.5
t28.5 -30t20.5 -37l8 -19h21q53 0 90.5 -37.5t37.5 -90.5q0 -13 9.5 -22.5t22.5 -9.5t22.5 9.5t9.5 22.5q0 37 -13.5 70.5t-36 58.5t-54.5 41.5t-67 19.5zM405 416q-53 -5 -96 -40q-25 18 -39 45.5t-14 58.5q0 53 37.5 90.5t90.5 37.5q31 0 58.5 -14.5t45.5 -39.5
q-21 -18 -37.5 -39.5t-28.5 -46.5t-17 -52zM1022 192q0 13 -9 22.5t-23 9.5h-702q-13 0 -22.5 -9.5t-9.5 -22.5t9.5 -22.5t22.5 -9.5h702q9 0 16.5 4.5t11.5 11.5t4 16zM958 64q0 6 -2.5 12t-6.5 10.5t-10 7t-13 2.5h-574q-13 0 -22.5 -9.5t-9.5 -22.5t9.5 -22.5t22.5 -9.5
h574q9 0 16.5 4.5t11.5 11.5t4 16zM480 -32q-13 0 -22.5 -9.5t-9.5 -22.5t9.5 -22.5t22.5 -9.5h382q9 0 16.5 4.5t11.5 11.5t4 16q0 13 -9 22.5t-23 9.5h-382zM322 -32q-14 0 -23 -9.5t-9 -22.5q0 -6 2.5 -12t6.5 -10.5t10 -7t13 -2.5h62q13 0 22.5 9.5t9.5 22.5t-9.5 22.5
t-22.5 9.5h-62z" />
    <glyph glyph-name="uniE634" unicode="&#xe634;" 
d="M982 229h-702q-13 0 -22.5 -9.5t-9.5 -22.5t9.5 -22.5t22.5 -9.5h702q9 0 16.5 4t11.5 11.5t4 16.5q0 13 -9 22.5t-23 9.5zM918 101h-574q-9 0 -16 -4.5t-11.5 -12t-4.5 -15.5q0 -13 9.5 -22.5t22.5 -9.5h574q9 0 16.5 4t11.5 11.5t4 16.5q0 13 -9 22.5t-23 9.5zM854 -27
h-382q-13 0 -22.5 -9.5t-9.5 -22.5t9.5 -22.5t22.5 -9.5h382q9 0 16.5 4t11.5 11.5t4 16.5q0 13 -9 22.5t-23 9.5zM376 -27h-62q-14 0 -23 -9.5t-9 -22.5t9 -22.5t23 -9.5h62q9 0 16 4t11.5 11.5t4.5 16.5q0 13 -9.5 22.5t-22.5 9.5zM378 699q8 0 15.5 4.5t12 12t4.5 15.5
v96q0 13 -9.5 22.5t-22.5 9.5q-9 0 -16.5 -4t-11.5 -11.5t-4 -16.5v-96q0 -13 9 -22.5t23 -9.5zM170 491q0 13 -9.5 22.5t-22.5 9.5h-96q-14 0 -23 -9.5t-9 -22.5t9 -22.5t23 -9.5h96q23 0 30 23q1 5 2 9zM190 634q5 -5 11 -7.5t12 -2.5h4l4 2h4q2 1 3.5 2t3.5 2.5t3 3.5
q7 6 9 14t0 16t-9 14l-69 69q-4 5 -10 7.5t-12 2.5t-12 -2.5t-10 -7.5q-7 -6 -9 -14t0 -16t9 -15zM542 624h4l4 2h4l4 2l4 2l3 4l69 68q6 7 8 15t0 16t-8 14q-10 10 -23 10t-22 -10l-69 -69q-6 -6 -8.5 -14t0 -16t8.5 -14q1 -2 2 -3l4 -2q1 -1 3 -2t3 -1l4 -2h3h3zM190 349
l-68 -69q-10 -10 -10 -22.5t10 -22.5q10 -8 22 -8q13 0 22 10l69 69q10 9 10 22t-10 22q-9 9 -22.5 8.5t-22.5 -9.5zM426 378h-6q-3 0 -6 0.5t-6 0.5q-41 0 -74.5 -24.5t-47.5 -63.5h695h1q-1 32 -14.5 60t-34.5 48t-50 32t-61 12q-24 58 -76 93t-116 35q-80 1 -139 -55
t-65 -138zM266 379q8 10 17.5 18.5t20 15.5t21.5 12.5t23 9.5t25 7q29 102 123 158q-45 53 -120 53q-66 0 -113 -47t-47 -113q2 -69 50 -114z" />
    <glyph glyph-name="uniE635" unicode="&#xe635;" 
d="M61 616l-42 18l-3 -48v-10q0 -60 30 -112t82 -82l-3 -3q-1 -1 -2.5 -3.5t-2.5 -4.5q-8 -11 -6 -23.5t12.5 -21t23.5 -6.5t21 13q18 24 44.5 37.5t56.5 13.5l32 -2l3 29q10 84 73.5 140.5t147.5 56.5q68 0 125 -38.5t83 -102.5l10 -22l24 1h16q50 0 91.5 -29.5t58.5 -77.5
q4 -9 12.5 -15t17.5 -6q7 1 12 2q12 5 17.5 17t1.5 25q-24 67 -81.5 107.5t-128.5 40.5q-18 37 -45 66.5t-60 50.5t-72 32t-80 11q-36 0 -80 -11q-27 64 -84 102.5t-126 38.5h-11l-48 -3l17 -42q5 -9 6.5 -19t1.5 -22q0 -44 -31 -75t-74 -31q-19 0 -40 8zM272 714
q0 12 -2 20q27 -4 50 -17.5t40.5 -34t28.5 -45.5q-18 -10 -34 -22.5t-30 -26.5t-26.5 -30t-22.5 -33.5t-17.5 -37t-12.5 -39.5q-37 -6 -64 -21q-38 14 -65 46.5t-35 72.5q8 -2 20 -2q71 0 120.5 49.5t49.5 120.5zM1008 256q0 13 -9.5 22.5t-22.5 9.5h-864q-13 0 -22.5 -9.5
t-9.5 -22.5t9.5 -22.5t22.5 -9.5h864q13 0 22.5 9.5t9.5 22.5zM912 128q0 13 -9.5 22.5t-22.5 9.5h-704q-13 0 -22.5 -9.5t-9.5 -22.5t9.5 -22.5t22.5 -9.5h704q13 0 22.5 9.5t9.5 22.5zM304 32q-13 0 -22.5 -9.5t-9.5 -22.5t9.5 -22.5t22.5 -9.5h512q13 0 22.5 9.5
t9.5 22.5t-9.5 22.5t-22.5 9.5h-512zM146 32q-14 0 -23 -9.5t-9 -22.5q0 -9 4 -16t11.5 -11.5t16.5 -4.5h62q13 0 22.5 9.5t9.5 22.5t-9.5 22.5t-22.5 9.5h-62z" />
    <glyph glyph-name="uniE636" unicode="&#xe636;" 
d="M259 432h-1q-26 0 -50.5 -8t-44 -22.5t-33.5 -33.5h820q-19 57 -68.5 92.5t-111.5 35.5q-13 0 -20 -2q-29 73 -93.5 117.5t-144.5 44.5q-97 0 -169.5 -64.5t-83.5 -159.5zM107 438q20 19 45.5 32t52.5 20q20 69 68 123t114 81q-18 28 -42.5 48t-55.5 31t-65 11h-11
q5 -13 8 -27t3 -27q0 -37 -18 -69t-50 -50.5t-70 -18.5q-26 0 -54 11v-11q0 -15 2.5 -30.5t7 -29.5t11 -27t14.5 -25t18.5 -22.5t21.5 -19.5zM960 304h-864q-13 0 -22.5 -9.5t-9.5 -22.5t9.5 -22.5t22.5 -9.5h864q13 0 22.5 9.5t9.5 22.5t-9.5 22.5t-22.5 9.5zM864 176h-704
q-13 0 -22.5 -9.5t-9.5 -22.5t9.5 -22.5t22.5 -9.5h704q13 0 22.5 9.5t9.5 22.5t-9.5 22.5t-22.5 9.5zM800 48h-512q-13 0 -22.5 -9.5t-9.5 -22.5t9.5 -22.5t22.5 -9.5h512q13 0 22.5 9.5t9.5 22.5t-9.5 22.5t-22.5 9.5zM192 48h-62q-14 0 -23 -9.5t-9 -22.5t9 -22.5
t23 -9.5h62q13 0 22.5 9.5t9.5 22.5t-9.5 22.5t-22.5 9.5z" />
    <glyph glyph-name="uniE637" unicode="&#xe637;" 
d="M160 384q0 -145 103.5 -248.5t248.5 -103.5t248.5 103.5t103.5 248.5t-103.5 248.5t-248.5 103.5t-248.5 -103.5t-103.5 -248.5zM512 672q119 0 203.5 -84.5t84.5 -203.5t-84.5 -203.5t-203.5 -84.5t-203.5 84.5t-84.5 203.5t84.5 203.5t203.5 84.5z" />
    <glyph glyph-name="uniE638" unicode="&#xe638;" 
d="M512 384zM192 384q0 132 94 226t226 94t226 -94t94 -226t-94 -226t-226 -94t-226 94t-94 226z" />
    <glyph glyph-name="uniE639" unicode="&#xe639;" 
d="M160 384q0 -145 103.5 -248.5t248.5 -103.5t248.5 103.5t103.5 248.5t-103.5 248.5t-248.5 103.5t-248.5 -103.5t-103.5 -248.5zM800 384q0 -119 -84.5 -203.5t-203.5 -84.5t-203.5 84.5t-84.5 203.5t84.5 203.5t203.5 84.5t203.5 -84.5t84.5 -203.5zM490 598
q-10 -9 -10 -22q0 -6 2.5 -12t7.5 -10l4 -4l4 -2q2 -2 4 -2l6 -2h4q13 1 22 10l4 4l2 4q2 2 2 4l2 6v4q-1 13 -10 22q-5 6 -13.5 8t-17 0t-13.5 -8zM672 448q6 0 12 2.5t10 7.5q10 10 10 22q-1 13 -10 22t-22.5 9t-21.5 -9l-4 -4l-2 -4q-2 -2 -2 -4l-2 -6v-4v-4l2 -4v-4
q1 -2 2 -3.5t2.5 -3.5t3.5 -3q9 -10 22 -10zM362 470q-10 -9 -10 -22t9.5 -22.5t22.5 -9.5t22 10q10 10 10 22q0 13 -10 22q-8 9 -22 9t-22 -9z" />
    <glyph glyph-name="uniE63A" unicode="&#xe63a;" 
d="M512 704q-132 0 -226 -94t-94 -226t94 -226t226 -94t226 94t94 226t-94 226t-226 94zM406 426q-9 -10 -22 -10t-22 10q-10 7 -10 22q0 13 10 22q3 4 7.5 6.5t9.5 3t10 0t9.5 -3t7.5 -6.5q5 -4 7.5 -10t2.5 -12q0 -15 -10 -22zM534 554l-4 -4l-4 -2q-2 -2 -4 -2l-6 -2h-4
q-13 1 -22 10q-10 7 -10 22q0 6 2.5 12t7.5 10q8 10 22 10t22 -10l4 -4l2 -4q2 -2 2 -4l2 -6v-4q-1 -15 -10 -22zM694 458q-9 -10 -22 -10q-4 0 -8 1t-7.5 3t-6.5 6q-3 1 -4.5 3.5t-3 5.5t-2 6t-0.5 7v4l2 4v4q1 2 2 3.5t2.5 3.5t3.5 3q6 7 14.5 9t16.5 0t13 -9
q10 -10 10 -22q-1 -15 -10 -22z" />
    <glyph glyph-name="uniE63B" unicode="&#xe63b;" 
d="M512 896q-138 0 -256 -69t-187 -187t-69 -256t69 -256t187 -187t256 -69t256 69t187 187t69 256t-69 256t-187 187t-256 69zM512 -64q-121 0 -224.5 60t-163.5 163.5t-60 224.5t60 224.5t163.5 163.5t224.5 60t224.5 -60t163.5 -163.5t60 -224.5t-60 -224.5
t-163.5 -163.5t-224.5 -60zM290 464q-21 0 -34.5 -14t-13.5 -34q0 -13 6 -24t17 -17.5t24.5 -6.5t24.5 6.5t17.5 17.5t6.5 24q0 20 -14.5 34t-33.5 14zM768 560q-20 0 -34 -14t-14 -34t14 -34t34 -14t34 14t14 34q0 19 -14 33.5t-34 14.5zM576 752q-20 0 -34 -14t-14 -34
t14 -34t34 -14t34 14t14 34q0 19 -14 33.5t-34 14.5z" />
    <glyph glyph-name="uniE63C" unicode="&#xe63c;" 
d="M512 864q-199 0 -339.5 -140.5t-140.5 -339.5t140.5 -339.5t339.5 -140.5t339.5 140.5t140.5 339.5t-140.5 339.5t-339.5 140.5zM290 368q-21 0 -34.5 14t-13.5 34q0 13 6 24t17 17.5t24.5 6.5t24.5 -6.5t17.5 -17.5t6.5 -24q0 -19 -14.5 -33.5t-33.5 -14.5zM576 656
q-20 0 -34 14t-14 34t14 34t34 14t34 -14t14 -34t-14 -34t-34 -14zM768 464q-20 0 -34 14t-14 34t14 34t34 14t34 -14t14 -34t-14 -34t-34 -14z" />
    <glyph glyph-name="uniE63D" unicode="&#xe63d;" 
d="M795 736q-25 48 -66.5 84.5t-93 56t-107.5 19.5q-51 0 -99 -17t-86.5 -46.5t-66.5 -71.5t-41 -91q-6 1 -12 1.5t-15 0.5q-86 0 -147 -61t-61 -147t61 -147t147 -61h576q100 0 170 70t70 170q0 96 -66.5 165.5t-162.5 74.5zM786 320h-578q-60 0 -102 42t-42 102t42 102
t102 42q8 0 14.5 -0.5t13.5 -2t14 -3.5l35 -12l5 37q14 88 81.5 146.5t156.5 58.5q28 0 55.5 -6.5t51.5 -19t45.5 -29.5t38.5 -39.5t28 -47.5l10 -20l25 2h4q48 0 88.5 -23.5t64 -64t23.5 -88.5t-24 -88.5t-64.5 -64t-87.5 -23.5zM736 -32q13 0 22.5 9.5t9.5 22.5v160
q0 13 -9.5 22.5t-22.5 9.5t-22.5 -9.5t-9.5 -22.5v-160q0 -13 9.5 -22.5t22.5 -9.5zM576 192q-13 0 -22.5 -9.5t-9.5 -22.5v-64q0 -13 9.5 -22.5t22.5 -9.5t22.5 9.5t9.5 22.5v64q0 13 -9.5 22.5t-22.5 9.5zM416 -32q13 0 22.5 9.5t9.5 22.5v160q0 13 -9.5 22.5t-22.5 9.5
t-22.5 -9.5t-9.5 -22.5v-160q0 -13 9.5 -22.5t22.5 -9.5zM256 192q-13 0 -22.5 -9.5t-9.5 -22.5v-96q0 -13 9.5 -22.5t22.5 -9.5t22.5 9.5t9.5 22.5v96q0 13 -9.5 22.5t-22.5 9.5zM234 -10q-10 -7 -10 -22q0 -6 2.5 -12t7.5 -10q9 -10 22 -10h4l6 2q2 0 4 2l4 2l4 4
q10 9 10 22t-10 22q-8 10 -22 10t-22 -10zM393.5 -118.5q9.5 -9.5 22.5 -9.5q3 0 6 0.5t6 2t5.5 3t4.5 4.5q10 9 10 22t-10 22q-9 9 -22.5 9t-21.5 -9q-5 -3 -7.5 -9.5t-2.5 -12.5q0 -13 9.5 -22.5zM554 22l-4 -4l-2 -4q-2 -2 -2 -4l-2 -6v-4v-4l2 -4v-4q1 -2 2 -3.5
t2.5 -3.5t3.5 -3q9 -10 22 -10q6 0 12 2.5t10.5 7t7 10.5t2.5 12v4l-2 4v4q-1 2 -2 3.5t-2.5 3.5t-3.5 3q-5 7 -13.5 9t-17 0t-13.5 -9zM714 -118q9 -10 22 -10q6 0 12 2.5t10.5 7t7 10.5t2.5 12v4l-2 4v4q-1 2 -2 3.5t-2.5 3.5t-3.5 3q-9 9 -22.5 9t-21.5 -9q-2 -1 -3.5 -3
t-3 -4.5t-1.5 -4.5l-2 -6v-4v-4l2 -4v-4q1 -2 2 -3.5t2.5 -3.5t3.5 -3z" />
    <glyph glyph-name="uniE63E" unicode="&#xe63e;" 
d="M291 186q-11 8 -23.5 7t-21.5 -12l-40 -51q-8 -11 -7 -24t12 -21q3 -2 5 -3t4.5 -2t5 -1.5t4.5 -0.5q5 0 10 1.5t9 4.5t7 7l40 51q4 4 6 8.5t2 9t-1.5 9.5t-4.5 9t-7 8zM451 186q-11 8 -23.5 7t-21.5 -12l-145 -181q-9 -11 -7.5 -23.5t12.5 -21.5q1 -1 2.5 -2t3.5 -1.5
t4 -1.5h2q2 -1 4 -1h3q15 1 25 13l146 180q5 4 7 10t1 12t-4 11.5t-9 10.5zM611 186q-7 5 -15.5 6.5t-16 -1.5t-13.5 -10l-38 -50q-8 -11 -7 -23.5t12 -21.5q8 -6 19 -6q15 0 26 13l40 49q3 4 4.5 8t1.5 9t-1.5 10t-4.5 9t-7 8zM587 -46q9 -7 19 -7q16 0 26 13l146 181
q8 11 7 23.5t-12 21.5q-7 5 -15.5 6.5t-16.5 -1.5t-13 -10l-146 -181q-5 -8 -6.5 -16.5t1.5 -16.5t10 -13zM147 54q-9 -10 -9 -22q0 -13 9.5 -22.5t22.5 -9.5q6 0 11.5 2.5t10.5 7.5q10 9 10 22q0 6 -2.5 12t-7.5 10q-5 7 -13.5 9t-17 0t-14.5 -9zM205 -74q-10 -9 -10 -22
t9.5 -22.5t22.5 -9.5h4l4 2h4l4 2t3 2l4 4q9 10 9 22q0 13 -9 22q-9 10 -23 10t-22 -10zM467 54q-9 -10 -9 -22q0 -13 9.5 -22.5t22 -9.5t22.5 9.5t10 22.5q-1 13 -10 22q-5 7 -13.5 9t-17 0t-14.5 -9zM525 -74q-9 -10 -10 -22q0 -3 0.5 -6t2 -6t3 -5.5t4.5 -4.5
q5 -5 10.5 -7.5t11.5 -2.5q4 0 8 1t7.5 3t7.5 6q9 10 9 22q0 3 -0.5 6t-1.5 6t-3 5.5t-4 4.5q-9 10 -23 10t-22 -10zM752 637q-33 60 -92.5 95.5t-129.5 35.5q-35 0 -74 -11q-17 61 -68 100t-116 39q-79 0 -135.5 -56.5t-56.5 -135.5q0 -57 30 -103.5t79 -69.5
q-45 -50 -45 -112q0 -67 49 -115t119 -48h437q39 0 75.5 15t62.5 41t41.5 61t15.5 73q0 52 -25.5 95t-69.5 68.5t-97 27.5zM144 704q0 53 37.5 90.5t90.5 37.5q46 0 81 -29t44 -73q-86 -53 -111 -149l-24 -5q-49 4 -83.5 40.5t-34.5 87.5zM749 320h-437q-28 0 -52 13.5
t-38 36t-14 49.5q0 41 30 70t72 29l32 -1l4 29q8 67 61 111.5t123 44.5q57 0 104 -30.5t68 -81.5l10 -22l24 2h13q54 0 92.5 -37t38.5 -90q0 -60 -53 -98q-36 -25 -78 -25z" />
    <glyph glyph-name="uniE63F" unicode="&#xe63f;" 
d="M232 109q-13 0 -19 6q-11 9 -12 21.5t7 23.5l40 51q8 11 21.5 12.5t23.5 -7.5q11 -8 12 -21t-7 -24l-42 -49q-5 -7 -11 -10t-13 -3zM286 -21q-12 1 -19 7q-11 8 -12 21t7 23l146 181q8 11 21 12t24 -7t12 -21t-7 -24l-146 -181q-9 -11 -26 -11zM552 110q-13 0 -19 7
q-11 8 -12 21t7 24l40 49q8 11 21 12t24 -7t12 -21t-7 -24l-40 -49q-12 -12 -26 -12zM606 -21q-12 0 -19 7q-11 8 -12 21t7 23l146 181q8 11 21 12t24 -7t12 -21t-7 -24l-146 -181q-9 -11 -26 -11zM170 32q-13 1 -23 10q-9 10 -9 22q0 13 9 22q6 7 14.5 9t16.5 -0.5t14 -8.5
q10 -9 10 -22q0 -6 -2.5 -12t-7.5 -10.5t-10.5 -7t-11.5 -2.5zM227 -96h-4l-4 2h-4q-2 1 -3.5 2t-3.5 2.5t-3 3.5q-10 9 -10 22q0 4 1 8t3.5 7.5t5.5 6.5q8 10 22 10t23 -10q1 -1 2.5 -3t2.5 -3.5t2 -3.5t1.5 -4t0.5 -4v-4q0 -13 -9 -22q-2 -2 -4 -3l-2 -2l-4 -2
q-1 -1 -2.5 -1.5t-3.5 -1t-4 -0.5h-3zM490 32q-13 1 -23 10q-9 10 -9 22q0 13 9 22t23 9t22 -9q9 -10 10 -22q0 -3 -1 -6l-2 -6q-1 -3 -3 -6l-4 -4q-2 -3 -5 -4.5t-5.5 -3t-5.5 -2t-6 -0.5zM547 -96q-6 0 -11.5 2.5t-10.5 7.5q-9 10 -10 22q1 13 10 22q2 3 5 5t6.5 3t7 1.5
t7 0t7 -1.5t6.5 -3t6 -5q2 -2 3.5 -4t2.5 -4l2 -4v-6q1 -2 1 -4q-1 -13 -9 -22q-5 -5 -11 -7.5t-12 -2.5zM749 605h-16q-12 29 -32.5 53.5t-46.5 42t-57.5 27.5t-65.5 10q-83 0 -144.5 -53t-71.5 -131h-1q-28 0 -53 -10.5t-43.5 -28.5t-29 -42t-10.5 -51q0 -35 18 -65
t49.5 -48t68.5 -18h436q68 0 116 46.5t48 112.5q-1 41 -23.5 76.5t-60 57t-81.5 21.5zM262 610q18 55 58.5 98.5t95.5 67.5q-21 39 -59.5 63.5t-84.5 24.5q-66 0 -113 -47t-47 -113q0 -28 9 -53.5t25 -46t38 -34.5q31 27 78 40z" />
    <glyph glyph-name="uniE640" unicode="&#xe640;" 
d="M211 85q2 -1 3 -2l4 -2q1 -1 2.5 -1.5t3.5 -0.5t3.5 -0.5t2.5 -0.5q7 0 14 3.5t12 8.5l40 51q8 11 7 23.5t-12 21.5q-21 16 -41 -1l-4 -4l-40 -51q-4 -6 -5.5 -12t-0.5 -12t3.5 -11.5t7.5 -9.5zM451 186q-11 8 -23.5 7t-21.5 -12l-145 -181q-9 -11 -7.5 -23.5t12.5 -21.5
q1 -1 2.5 -2t3.5 -1.5t4 -1.5h2q2 -1 4 -1h3q15 1 25 13l146 180q4 5 6 10.5t1.5 11.5t-4 12t-8.5 10zM533 86q8 -6 19 -6q7 0 14 3.5t12 9.5l40 49q2 3 3.5 6.5t2 7t0.5 7t-0.5 7t-2 6.5t-3.5 6t-5 5q-11 9 -24 7.5t-21 -12.5l-40 -51q-8 -11 -7 -23.5t12 -21.5zM771 186
q-7 5 -15.5 6.5t-16 -1.5t-13.5 -10l-145 -181q-3 -4 -4.5 -8t-2.5 -8t-0.5 -8t2 -7.5t4 -7t6.5 -6.5q3 -2 6 -3.5t6 -2t7 -0.5q3 0 7 1t7 2.5t6 4t5 5.5l146 180l4 6q2 3 2.5 6t0.5 6.5t-0.5 7t-2 6.5t-4 6t-5.5 6zM147 54q-9 -10 -9 -22q0 -13 9.5 -22.5t22.5 -9.5
q6 0 11.5 2.5t10.5 7.5q10 9 10 22q0 6 -2.5 12t-7.5 10q-6 6 -14 8.5t-16.5 0.5t-14.5 -9zM259 -96q0 13 -9 22q-9 10 -23 10t-22 -10q-10 -9 -10 -22t9.5 -22.5t22.5 -9.5h4l4 2h4l4 2t3 2l4 4q9 9 9 22zM490 0q12 0 22 10q3 3 5 6.5t3.5 7.5t1.5 8q-1 13 -10 22
q-24 21 -45 0q-9 -10 -9 -22q0 -13 9 -22q7 -10 23 -10zM547 -128h3q2 0 4 0.5t3.5 1t2.5 1.5l4 2l2 2q2 1 4 3t3.5 4t2.5 4l2 4v6q1 2 1 4q-1 13 -9 22q-7 7 -15 9t-16.5 0t-13.5 -9q-2 -2 -3.5 -4t-2.5 -4t-2 -4.5t-1.5 -5t-0.5 -4.5q1 -13 10 -22q7 -10 22 -10zM944 446
q0 78 -55.5 133t-136.5 58q-33 60 -92.5 95.5t-129.5 35.5q-40 0 -74 -11q-17 61 -68 100t-116 39l-11 -2h-3l-47 -3l19 -41q3 -6 4.5 -11.5t2.5 -11.5t1 -11q0 -34 -23 -57t-57 -23q-19 0 -32 6l-41 20l-3 -45v-2q-2 -5 -2 -11q0 -57 30 -103.5t79 -69.5q-45 -47 -45 -112
q0 -67 49 -115t119 -48h437q39 0 75.5 15t62.5 41t41.5 61t15.5 73zM147 674h11q60 0 102 42t42 102v12q18 -4 34 -13t28.5 -21.5t21 -28.5t12.5 -34q-85 -53 -110 -149l-24 -5q-43 1 -75 27.5t-42 67.5zM749 320h-437q-28 0 -52 13.5t-38 36t-14 49.5q0 41 30 70t72 29
l32 -1l4 29q8 67 61 111.5t123 44.5q57 0 104 -30.5t68 -81.5l10 -22l24 2h13q54 0 92.5 -37t38.5 -90q0 -60 -53 -98q-36 -25 -78 -25z" />
    <glyph glyph-name="uniE641" unicode="&#xe641;" 
d="M232 109q-13 0 -19 6q-11 9 -12.5 22t7.5 23l40 51q8 11 21.5 12.5t23.5 -7.5q11 -8 12 -21t-7 -24l-42 -49q-5 -6 -11.5 -9.5t-12.5 -3.5zM286 -21q-12 1 -19 7q-11 8 -12 21t7 23l146 181q8 11 21 12t24 -7t12 -21t-7 -24l-146 -181q-9 -11 -26 -11zM552 110
q-13 0 -19 7q-11 8 -12 21t7 24l40 49q8 11 21.5 12.5t23.5 -7.5q11 -8 12 -21t-7 -24l-40 -49q-12 -12 -26 -12zM606 -21q-12 0 -19 7q-11 8 -12 21t7 23l146 181q8 11 21 12t24 -7t12 -21t-7 -24l-146 -181q-9 -11 -26 -11zM170 32q-13 1 -23 10q-9 10 -9 22q0 13 9 22
q10 9 23.5 9t21.5 -9q10 -9 10 -22q0 -6 -2.5 -12t-7.5 -10.5t-10.5 -7t-11.5 -2.5zM227 -96h-4l-4 2h-4q-2 1 -3.5 2t-3.5 2.5t-3 3.5q-10 9 -10 22q0 4 1 8t3.5 7.5t5.5 6.5q9 10 22.5 10t22.5 -10q1 -1 2.5 -3t2.5 -3.5t2 -3.5t1.5 -4t0.5 -4v-4q0 -13 -9 -22
q-2 -2 -4 -3l-2 -2l-4 -2q-1 -1 -2.5 -1.5t-3.5 -1t-4 -0.5h-3zM490 32q-13 1 -23 10q-9 10 -9 22q0 13 9 22q10 10 23 9.5t22 -9.5q9 -10 10 -22q0 -3 -1 -6l-2 -6q-1 -3 -3 -6l-4 -4q-2 -3 -5 -4.5t-5.5 -3t-5.5 -2t-6 -0.5zM547 -96h-3q-2 0 -4 0.5t-3.5 1t-3.5 1.5
t-3.5 2t-2.5 2t-2 3q-9 10 -10 22q1 13 10 22q2 3 5 5t6.5 3t7 1.5t7 0t7 -1.5t6.5 -3t6 -5q2 -2 3.5 -4t2.5 -4l2 -4v-6q1 -2 1 -4q-1 -13 -9 -22q-5 -5 -11 -7.5t-12 -2.5zM749 288q67 0 115 46.5t48 111.5q0 44 -22 80.5t-59.5 57.5t-81.5 21h-16q-12 29 -32.5 53.5
t-46.5 42t-57.5 27.5t-65.5 10q-83 0 -144.5 -53t-71.5 -131h-1q-28 0 -53 -10.5t-43.5 -28.5t-29 -42t-10.5 -51q0 -35 18 -65t49.5 -48t68.5 -18zM184 570q38 29 77 38q7 22 18 43t25.5 39t31.5 33.5t37 28.5t41 22q-9 21 -24 37.5t-33 28t-40 18t-45 6.5q-3 0 -7 -1
q-3 -1 -4 -1q5 -11 7 -22t2 -24q0 -47 -32.5 -79.5t-79.5 -32.5q-4 0 -9 0.5t-9.5 1t-9.5 2.5l-8 2q-5 2 -8 4q0 -2 -1 -5q-1 -4 -1 -5q0 -28 9 -53.5t25 -46t38 -34.5z" />
    <glyph glyph-name="uniE642" unicode="&#xe642;" 
d="M795 736q-25 48 -66.5 84.5t-93 56t-107.5 19.5q-51 0 -99 -17t-86.5 -46.5t-66.5 -71.5t-41 -91q-6 1 -12 1.5t-15 0.5q-86 0 -147 -61t-61 -147t61 -147t147 -61h576q100 0 170 70t70 170q0 96 -66.5 165.5t-162.5 74.5zM784 320h-576q-60 0 -102 42t-42 102t42 102
t102 42q8 0 14.5 -0.5t13.5 -2t14 -3.5l35 -12l5 37q14 88 81.5 146.5t156.5 58.5q28 0 55.5 -6.5t51.5 -19t45.5 -29.5t38.5 -39.5t28 -47.5l10 -20l25 2h4q48 0 88.5 -23.5t64 -64t23.5 -88.5q-2 -73 -53.5 -124.5t-124.5 -51.5zM211 186q-11 8 -23.5 6.5t-21.5 -11.5
l-102 -128q-4 -6 -6 -12t-1.5 -12t3.5 -11.5t9 -9.5q3 -3 6.5 -5t7 -2.5t7.5 -0.5q15 0 25 13l103 128q7 9 5.5 22.5t-12.5 22.5zM158 -122q9 -6 20 -6q7 0 13.5 3.5t11.5 9.5l205 256q8 11 7 23.5t-12 21t-23.5 7.5t-21.5 -12l-204 -256q-9 -11 -7 -24.5t11 -22.5zM595 186
q-3 2 -6.5 3.5t-6.5 2t-6.5 0.5t-7 -0.5t-6.5 -2t-6 -3.5t-6 -5l-102 -128q-8 -11 -7 -24t12 -21q8 -6 19 -6q15 1 26 12l102 128q6 6 7.5 14t-2 16t-10.5 14zM542 -122q9 -6 20 -6q7 0 13.5 3.5t11.5 9.5l205 256q8 11 7 23.5t-12 21.5q-7 5 -15.5 6.5t-16 -1.5t-13.5 -10
l-204 -256q-2 -2 -3.5 -4.5t-2.5 -4.5v-6q-1 -2 -1 -4v-6q0 -2 1 -4l2 -6l2 -4t2.5 -4t3.5 -4z" />
    <glyph glyph-name="uniE643" unicode="&#xe643;" 
d="M784 704h-8q-33 72 -99.5 116t-148.5 44q-40 0 -78 -11.5t-70 -32.5t-57 -49.5t-41.5 -64t-22.5 -74.5q-26 8 -51 8q-73 0 -124.5 -51.5t-51.5 -124.5t51.5 -124.5t124.5 -51.5h574h2q86 0 147 61t61 147t-61 147t-147 61zM106 32h-4q-1 0 -3 0.5t-3 1.5h-4q-1 1 -2.5 2
t-3.5 2q-10 9 -11.5 21.5t7.5 23.5l102 128q8 11 21 12t24 -7t12 -21t-7 -24l-103 -128q-11 -11 -25 -11zM195 -96q-13 0 -19 6q-11 9 -12 21.5t7 23.5l205 256q8 11 21 12t24 -7t12 -21t-7 -24l-205 -256q-11 -11 -26 -11zM490 32h-4q-1 0 -3 0.5t-3 1.5h-4q-1 1 -2.5 2
t-3.5 2q-10 9 -11.5 21.5t7.5 23.5l102 128q8 11 21 12t24 -7t12 -21t-7 -24l-103 -128q-11 -11 -25 -11zM579 -96q-13 0 -19 6q-11 9 -12 21.5t7 23.5l205 256q8 11 21 12t24 -7t12 -21t-7 -24l-205 -256q-11 -11 -26 -11z" />
    <glyph glyph-name="uniE644" unicode="&#xe644;" 
d="M795 736q-25 48 -66.5 84.5t-93 56t-107.5 19.5q-51 0 -99 -17t-86.5 -46.5t-66.5 -71.5t-41 -91q-6 1 -12 1.5t-15 0.5q-86 0 -147 -61t-61 -147t61 -147t147 -61h576q100 0 170 70t70 170q0 96 -66.5 165.5t-162.5 74.5zM784 320h-576q-60 0 -102 42t-42 102t42 102
t102 42q8 0 14.5 -0.5t13.5 -2t14 -3.5l35 -12l5 37q14 88 81.5 146.5t156.5 58.5q28 0 55.5 -6.5t51.5 -19t45.5 -29.5t38.5 -39.5t28 -47.5l10 -20l25 2h4q48 0 88.5 -23.5t64 -64t23.5 -88.5q-2 -73 -53.5 -124.5t-124.5 -51.5zM58 -59l32 40q20 25 -5 45q-11 8 -24 7
t-21 -12l-32 -40q-8 -11 -7 -24t12 -21q9 -6 19 -6q15 -3 26 11zM211 186q-11 8 -23.5 6.5t-21.5 -11.5l-56 -71q-8 -10 -6.5 -24t11.5 -22q9 -6 19 -6q16 0 26 12l56 71q9 9 7.5 22.5t-12.5 22.5zM224 -38q-7 5 -15.5 6t-16 -2t-13.5 -9l-25 -32q-9 -11 -7.5 -24t11.5 -21
q9 -6 20 -6q15 0 25 12l26 32q8 9 7 22t-12 22zM403 186q-11 8 -23.5 7t-21.5 -12l-102 -128q-8 -11 -7 -24t12 -21q8 -6 19 -6q15 1 26 12l102 128q4 5 6 10.5t1.5 11.5t-4 12t-8.5 10zM442 -59l59 73q8 11 7 24t-12 21q-3 3 -6.5 4.5t-7 2t-7 0.5t-6.5 -1t-6.5 -2.5
t-6 -3.5t-5.5 -5l-59 -73q-8 -11 -7 -24t12 -21q8 -6 19 -6q15 -2 26 11zM595 186q-7 5 -15.5 6.5t-16 -1.5t-13.5 -10l-25 -32q-17 -22 0 -41q3 -3 5 -4q8 -6 19 -6q3 0 7 0.5t7 2.5l6 4q3 2 5 5l26 32q4 5 6 10.5t1.5 11.5t-4 12t-8.5 10zM542 -122q9 -6 20 -6
q7 0 13.5 3.5t11.5 9.5l67 83q9 11 7.5 23.5t-11.5 21.5q-8 5 -16 6.5t-16 -1.5t-13 -10l-67 -83q-4 -5 -6 -11.5t-1 -13t4 -12t7 -10.5zM706 50q3 0 6.5 0.5t7 2.5t6.5 4t5 5l63 79q20 25 -5 45q-11 8 -24 7t-21 -12l-62 -79q-9 -10 -7.5 -23t11.5 -21q8 -8 20 -8z" />
    <glyph glyph-name="uniE645" unicode="&#xe645;" 
d="M792 704h-8q-33 72 -99.5 116t-148.5 44q-40 0 -78 -11.5t-70 -32.5t-57 -49.5t-41.5 -64t-22.5 -74.5q-26 8 -51 8q-73 0 -124.5 -51.5t-51.5 -124.5t51.5 -124.5t124.5 -51.5h574h2q86 0 147 61t61 147t-61 147t-147 61zM56 -40q-3 0 -6.5 0.5t-7 2t-5.5 3.5
q-11 9 -12 21.5t7 23.5l32 40q8 11 21 12t24 -7t12 -21t-7 -24l-32 -40q-5 -5 -12 -8t-14 -3zM160 90q-13 0 -19 6q-11 8 -12 21t7 24l56 70q8 11 21 12t24 -7t12 -21t-7 -24l-56 -70q-12 -11 -26 -11zM203 -96q-13 0 -19 6q-11 9 -12 21.5t7 23.5l26 32q8 11 21 12t23.5 -7
t12 -21t-7.5 -24l-25 -32q-5 -5 -12 -8t-14 -3zM306 32h-4q-1 0 -3 0.5t-3 1.5h-4q-1 1 -2.5 2t-3.5 2q-10 9 -11.5 21.5t7.5 23.5l102 128q8 11 21 12t24 -7t12 -21t-7 -24l-103 -128q-11 -11 -25 -11zM440 -40q-3 0 -6.5 0.5t-7 2t-5.5 3.5q-11 9 -12 21.5t7 23.5l59 74
q9 11 21.5 12t23.5 -7.5t12 -21t-7 -23.5l-59 -74q-5 -5 -12 -8t-14 -3zM574 128q-12 0 -19 6q-11 9 -12 21.5t7 23.5l26 32q8 11 21 12t24 -7t12 -21t-7 -24l-26 -32q-11 -11 -26 -11zM587 -96q-13 0 -19 6q-11 9 -12 21.5t7 23.5l67 83q9 11 21.5 12.5t23.5 -7t12 -21.5
t-7 -24l-67 -83q-5 -5 -12 -8t-14 -3zM730 82q-13 0 -20 6q-10 8 -11.5 21t7.5 24l62 78q8 11 21 12t24 -7t12 -21t-7 -24l-63 -78q-11 -11 -25 -11z" />
    <glyph glyph-name="uniE646" unicode="&#xe646;" 
d="M752 160q0 13 -9.5 22.5t-22.5 9.5t-22.5 -9.5t-9.5 -22.5v-160q0 -13 9.5 -22.5t22.5 -9.5t22.5 9.5t9.5 22.5v160zM592 64q13 0 22.5 9.5t9.5 22.5v64q0 13 -9.5 22.5t-22.5 9.5t-22.5 -9.5t-9.5 -22.5v-64q0 -13 9.5 -22.5t22.5 -9.5zM464 -32q13 0 22.5 9.5t9.5 22.5
v160q0 13 -9.5 22.5t-22.5 9.5t-22.5 -9.5t-9.5 -22.5v-160q0 -13 9.5 -22.5t22.5 -9.5zM368 160q0 13 -9.5 22.5t-22.5 9.5t-22.5 -9.5t-9.5 -22.5v-96q0 -13 9.5 -22.5t22.5 -9.5t22.5 9.5t9.5 22.5v96zM189 531q-45 -50 -45 -112q0 -67 49 -115t119 -48h437q39 0 75.5 15
t62.5 41t41.5 61t15.5 73q0 78 -55.5 133t-136.5 58q-33 60 -92.5 95.5t-129.5 35.5q-35 0 -74 -11q-17 61 -68 100t-116 39q-79 0 -135.5 -56.5t-56.5 -135.5q0 -57 30 -103.5t79 -69.5zM530 704q57 0 104 -30.5t68 -81.5l10 -22l24 1h13q54 0 92.5 -37t38.5 -89
t-38.5 -89.5t-92.5 -37.5h-437q-28 0 -52 13.5t-38 36.5t-14 50q0 40 30 69.5t72 29.5l32 -2l4 29q8 69 61 114.5t123 45.5zM272 832q46 0 81 -29t44 -73q-86 -53 -111 -149l-24 -5q-49 4 -83.5 40.5t-34.5 87.5q0 53 37.5 90.5t90.5 37.5zM314 -10q-10 -9 -10 -22
q0 -6 2.5 -12t7.5 -10q9 -10 22 -10h4l6 2q2 0 4 2l4 2l4 4q10 9 10 22t-10 22q-8 10 -22 10t-22 -10zM464 -128q3 0 6 0.5t6 2t5.5 3t4.5 4.5q10 9 10 22t-10 22q-9 9 -22.5 9t-21.5 -9q-3 -2 -5.5 -6t-3.5 -8t-1 -8q0 -13 9.5 -22.5t22.5 -9.5zM592 -32q4 0 8 1t7.5 3
t6.5 6q5 4 7.5 10t2.5 12v4l-2 4v4q-1 2 -2 3.5t-2.5 3.5t-3.5 3q-6 6 -14.5 8t-16.5 0t-13 -8q-2 -1 -3.5 -3t-3 -4.5t-1.5 -4.5l-2 -6v-4v-4l2 -4v-4q1 -2 2 -3.5t2.5 -3.5t3.5 -3q9 -10 22 -10zM698 -74q-2 -1 -3.5 -3t-3 -4.5t-1.5 -4.5l-2 -6v-4v-4l2 -4v-4
q1 -2 2 -3.5t2.5 -3.5t3.5 -3q9 -10 22 -10q13 1 22 10l4 4l2 4q2 2 2 4l2 6v4q-1 13 -10 22q-5 7 -13.5 9t-17 0t-13.5 -9z" />
    <glyph glyph-name="uniE647" unicode="&#xe647;" 
d="M720 0q-13 0 -22.5 9.5t-9.5 22.5v160q0 13 9.5 22.5t22.5 9.5t22.5 -9.5t9.5 -22.5v-160q0 -13 -9.5 -22.5t-22.5 -9.5zM592 96q-13 0 -22.5 9.5t-9.5 22.5v64q0 13 9.5 22.5t22.5 9.5t22.5 -9.5t9.5 -22.5v-64q0 -13 -9.5 -22.5t-22.5 -9.5zM464 0q-13 0 -22.5 9.5
t-9.5 22.5v160q0 13 9.5 22.5t22.5 9.5t22.5 -9.5t9.5 -22.5v-160q0 -13 -9.5 -22.5t-22.5 -9.5zM336 64q-13 0 -22.5 9.5t-9.5 22.5v96q0 13 9.5 22.5t22.5 9.5t22.5 -9.5t9.5 -22.5v-96q0 -13 -9.5 -22.5t-22.5 -9.5zM749 605h-16q-12 29 -32.5 53.5t-46.5 42t-57.5 27.5
t-65.5 10q-83 0 -144.5 -53t-71.5 -131h-1q-28 0 -53 -10.5t-43.5 -28.5t-29 -42t-10.5 -51q0 -35 18 -65t49.5 -48t68.5 -18h436q68 0 116 46.5t48 112.5q-1 41 -23.5 76.5t-60 57t-81.5 21.5zM262 610q18 55 58.5 98.5t95.5 67.5q-21 39 -59.5 63.5t-84.5 24.5
q-66 0 -113 -47t-47 -113q0 -28 9 -53.5t25 -46t38 -34.5q31 27 78 40zM336 0zM304 0q0 13 9.5 22.5t22.5 9.5t22.5 -9.5t9.5 -22.5t-9.5 -22.5t-22.5 -9.5t-22.5 9.5t-9.5 22.5zM464 -64zM432 -64q0 13 9.5 22.5t22.5 9.5t22.5 -9.5t9.5 -22.5t-9.5 -22.5t-22.5 -9.5
t-22.5 9.5t-9.5 22.5zM592 32zM560 32q0 13 9.5 22.5t22.5 9.5t22.5 -9.5t9.5 -22.5t-9.5 -22.5t-22.5 -9.5t-22.5 9.5t-9.5 22.5zM720 -64zM688 -64q0 13 9.5 22.5t22.5 9.5t22.5 -9.5t9.5 -22.5t-9.5 -22.5t-22.5 -9.5t-22.5 9.5t-9.5 22.5z" />
    <glyph glyph-name="uniE648" unicode="&#xe648;" 
d="M722 637q-33 60 -92.5 95.5t-130.5 35.5q-35 0 -73 -11q-9 30 -27 55.5t-42 44t-54.5 29t-62.5 10.5q-79 0 -135.5 -56.5t-56.5 -135.5q0 -57 30 -103.5t79 -69.5q-45 -47 -45 -112q0 -67 49 -115t119 -48h437q81 0 138 56t57 134q0 16 -2.5 31t-7 29t-11.5 27
t-15.5 24.5t-19 22t-22 19t-25 15.5t-27.5 12t-29.5 7.5t-30.5 3.5zM112 704q0 53 37.5 90.5t90.5 37.5q46 0 81 -29t44 -73q-86 -53 -111 -149l-24 -5q-32 2 -59 19.5t-43 46t-16 62.5zM717 320h-437q-28 0 -52 13.5t-38 36t-14 49.5q0 41 30 70t72 29h32l4 28q5 44 31 80
t66.5 56t86.5 20q57 0 104 -30.5t68 -81.5l10 -22l24 2h13q35 0 65.5 -17t48 -46t17.5 -64q0 -32 -17.5 -60.5t-47.5 -45.5t-66 -17zM688 192q-13 0 -22.5 -9.5t-9.5 -22.5v-256v0v-2v-3l2 -3v0l1 -3q1 -2 2 -3q0 -2 1 -4l2 -1q0 -1 1 -2l1 -1l1 -2q2 -2 3 -2t2 -0.5t2 -0.5
l1 -2q1 0 3 -1h2h2h1h5q5 0 8 1h2q3 0 6 3h2q0 1 2.5 2.5t3.5 2.5l2 2q0 1 2 3t2 3q17 37 52.5 58t75.5 17q14 -1 24 7.5t11.5 21.5t-7 23.5t-21.5 11.5q-35 4 -68 -5.5t-62 -30.5v166q-2 13 -12 22.5t-23 9.5zM592 160q0 13 -9.5 22.5t-22.5 9.5t-22.5 -9.5t-9.5 -22.5v-96
q0 -13 9.5 -22.5t22.5 -9.5t22.5 9.5t9.5 22.5v96zM464 160q0 13 -9.5 22.5t-22.5 9.5t-22.5 -9.5t-9.5 -22.5v-160q0 -13 9.5 -22.5t22.5 -9.5t22.5 9.5t9.5 22.5v160zM272 160v-166q-60 44 -130 36q-13 -1 -21.5 -11.5t-7 -23.5t12 -21.5t23.5 -7.5q41 4 76 -17t52 -58
l1 -1l2 -4q1 -1 2 -1l1 -2q4 -3 7 -5h1q1 0 3.5 -1t3.5 -2h1q2 0 4.5 -0.5t3.5 -0.5h3h4h2q3 1 4 1q2 0 2 2l1 1h2q1 1 3 2l2 2q1 1 1 3l2 1q0 2 1 4q1 1 2 3v1q0 1 2 2q0 2 1 3v3v2v0v256q0 13 -9.5 22.5t-22.5 9.5q-23 0 -32 -21q-3 -6 -3 -11zM922 22q-10 -9 -10 -24
q0 -2 0.5 -4t1 -3.5t1 -3.5t1.5 -4t2 -3l4 -4q10 -9 22 -10q6 0 12 2.5t10.5 7.5t7 10.5t2.5 11.5q-1 13 -10 23q-9 9 -22.5 9.5t-21.5 -8.5zM538 -10q-2 -1 -3.5 -3t-3 -4.5t-1.5 -4.5l-2 -6v-4v-4l2 -4v-4q1 -2 2 -3.5t2.5 -3.5t3.5 -3q9 -10 22 -10q13 1 22 10l4 4l2 4
q2 2 2 4l2 6v4v4l-2 4v4q-1 2 -2 3.5t-2.5 3.5t-3.5 3q-9 10 -22.5 10t-21.5 -10zM410 -74q-10 -7 -10 -22q0 -13 9.5 -22.5t22.5 -9.5q3 0 6 0.5t6 2t5.5 3t4.5 4.5q10 9 10 22t-9.5 22.5t-23 9.5t-21.5 -10z" />
    <glyph glyph-name="uniE649" unicode="&#xe649;" 
d="M544 64q13 0 22.5 9.5t9.5 22.5v96q0 13 -9.5 22.5t-22.5 9.5t-22.5 -9.5t-9.5 -22.5v-96q0 -13 9.5 -22.5t22.5 -9.5zM416 0q13 0 22.5 9.5t9.5 22.5v160q0 13 -9.5 22.5t-22.5 9.5t-22.5 -9.5t-9.5 -22.5v-160q0 -13 9.5 -22.5t22.5 -9.5zM320 -64v256q0 13 -9.5 22.5
t-22.5 9.5t-22.5 -9.5t-9.5 -22.5v-166q-60 44 -130 36q-13 -1 -21.5 -11.5t-7 -23.5t11.5 -21.5t24 -7.5q41 4 76 -17t52 -58l1 -1l2 -4q1 -1 2 -1l1 -2q4 -3 7 -5h1q1 0 3.5 -1t3.5 -2h1q2 0 4.5 -0.5t3.5 -0.5h3h4h1q1 0 2.5 0.5t2.5 0.5q2 0 2 2q1 0 3 1q1 0 1.5 1
t1.5 1l2 2q0 1 1 3l2 1q0 1 0.5 2t0.5 2q1 1 2 3l2 3v3v5h-2v0zM834 62q-18 2 -35.5 0t-34 -6.5t-31.5 -12t-29 -17.5v166q0 13 -9.5 22.5t-22.5 9.5t-22.5 -9.5t-9.5 -22.5v-256v0v-2v-4v-4q0 -1 2 -3q0 -1 0.5 -1.5t0.5 -1.5q1 -2 2 -3l1 -2q1 -1 2 -3l2 -2q1 -1 3 -1
q1 -1 3 -2q2 0 2 -1l2 -1l2 -1h2h3h3q5 0 8 2h2q3 0 6 3h2q1 1 3.5 2.5t2.5 2.5l2 1q1 1 2.5 3.5t2.5 3.5q8 18 21.5 33t30 24.5t36.5 14.5t40 3q6 -1 12.5 1t11 6t7.5 9.5t4 12.5q0 14 -8.5 24.5t-21.5 11.5zM394 -42q-10 -9 -10 -22t9.5 -22.5t22.5 -9.5h4l4 2h4
q2 1 3.5 2t3.5 2.5t3 3.5q10 9 10 22q0 4 -1 8t-3 7.5t-6 6.5q-8 10 -22 10t-22 -10zM522 22q-10 -10 -10 -22q1 -15 10 -22q1 -2 3 -3.5t3.5 -2.5t3.5 -2h4l4 -2h4q6 0 12 2.5t10.5 7t7 10.5t2.5 12v4l-2 4v4q-1 2 -2 3.5t-2.5 3.5t-3.5 3q-5 7 -13.5 9t-17 0t-13.5 -9z
M950 54q-4 5 -10.5 7t-12.5 2t-11.5 -2t-9.5 -7l-4 -4l-2 -4q-2 -2 -2 -4l-2 -6v-4q1 -13 10 -22q9 -10 22 -10q4 0 8 1t7.5 3t6.5 6l4 4l2 4q2 2 2 4l2 6v4q-1 13 -10 22zM701 605h-16q-12 29 -32.5 53.5t-46.5 42t-57.5 27.5t-65.5 10q-83 0 -144.5 -53t-71.5 -131h-1
q-57 0 -96.5 -39t-39.5 -93q0 -35 18 -65t49.5 -48t68.5 -18h436q68 0 116 46.5t48 112.5q-1 30 -14.5 58.5t-35.5 50t-52 34t-63 12.5zM214 610q12 37 34.5 69t53 56.5t66.5 40.5q-21 40 -59.5 64t-84.5 24q-66 0 -113 -47t-47 -113q0 -28 9 -53.5t25 -46t38 -34.5
q31 27 78 40z" />
    <glyph glyph-name="uniE64A" unicode="&#xe64a;" 
d="M720 -32q13 0 22.5 9.5t9.5 22.5v160q0 13 -9.5 22.5t-22.5 9.5t-22.5 -9.5t-9.5 -22.5v-160q0 -13 9.5 -22.5t22.5 -9.5zM624 160q0 13 -9.5 22.5t-22.5 9.5t-22.5 -9.5t-9.5 -22.5v-64q0 -13 9.5 -22.5t22.5 -9.5t22.5 9.5t9.5 22.5v64zM496 160q0 13 -9.5 22.5
t-22.5 9.5t-22.5 -9.5t-9.5 -22.5v-160q0 -13 9.5 -22.5t22.5 -9.5t22.5 9.5t9.5 22.5v160zM336 32q13 0 22.5 9.5t9.5 22.5v96q0 13 -9.5 22.5t-22.5 9.5t-22.5 -9.5t-9.5 -22.5v-96q0 -13 9.5 -22.5t22.5 -9.5zM944 446q0 78 -55.5 133t-136.5 58q-33 60 -92.5 95.5
t-129.5 35.5q-35 0 -74 -11q-17 61 -68 100t-116 39l-11 -2h-3l-47 -3l19 -41q3 -6 4.5 -11.5t2.5 -11.5t1 -11q0 -34 -23 -57t-57 -23q-19 0 -32 6l-41 20l-3 -45v-2q-2 -5 -2 -11q0 -57 30 -103.5t79 -69.5q-45 -50 -45 -112q0 -67 49 -115t119 -48h437q39 0 75.5 15
t62.5 41t41.5 61t15.5 73zM147 672h11q60 0 102 42t42 102v11q36 -8 62 -34.5t34 -62.5q-85 -53 -110 -149l-24 -5q-43 2 -75 29t-42 67zM749 320h-437q-28 0 -52 13.5t-38 36t-14 49.5q0 41 30 70t72 29l32 -1l4 29q8 67 61 111.5t123 44.5q57 0 104 -30.5t68 -81.5l10 -22
l24 2h13q54 0 92.5 -37t38.5 -90q0 -62 -55 -99q-35 -24 -76 -24zM442 -74q-10 -7 -10 -22q0 -13 9.5 -22.5t22.5 -9.5q3 0 6 0.5t6 2t5.5 3t4.5 4.5q10 9 10 22t-10 22q-8 10 -22 10t-22 -10zM570 22q-2 -1 -3.5 -3t-3 -4.5t-1.5 -4.5l-2 -6v-4v-4l2 -4v-4q1 -2 2 -3.5
t2.5 -3.5t3.5 -3q9 -10 22 -10q4 0 8 1t7.5 3t6.5 6q5 4 7.5 10t2.5 12v4l-2 4v4q-1 2 -2 3.5t-2.5 3.5t-3.5 3q-5 7 -13.5 9t-17 0t-13.5 -9zM720 -128q13 1 22 10l4 4l2 4q2 2 2 4l2 6v4q-1 13 -10 22t-22.5 9t-21.5 -9q-2 -1 -3.5 -3t-3 -4.5t-1.5 -4.5l-2 -6v-4v-4l2 -4
v-4q1 -2 2 -3.5t2.5 -3.5t3.5 -3q9 -10 22 -10zM336 -64h4l6 2q2 0 4 2l4 2l4 4q10 9 10 22t-10 22q-9 9 -22.5 9t-21.5 -9q-5 -3 -7.5 -9t-2.5 -13q0 -6 2.5 -12t7.5 -10q13 -10 22 -10z" />
    <glyph glyph-name="uniE64B" unicode="&#xe64b;" 
d="M723 0q-13 0 -22.5 9.5t-9.5 22.5v160q0 6 2.5 12t7 10.5t10.5 7t12 2.5q13 0 22.5 -9.5t9.5 -22.5v-160q0 -13 -9.5 -22.5t-22.5 -9.5zM595 96q-13 0 -22.5 9.5t-9.5 22.5v64q0 5 1.5 10t4.5 9t7 7t9 4.5t10 1.5q13 0 22.5 -9.5t9.5 -22.5v-64q0 -13 -9.5 -22.5
t-22.5 -9.5zM467 0q-13 0 -22.5 9.5t-9.5 22.5v160q0 13 9.5 22.5t22.5 9.5q9 0 16.5 -4.5t11.5 -11.5t4 -16v-160q0 -13 -9.5 -22.5t-22.5 -9.5zM339 64q-6 0 -12 2.5t-10.5 7t-7 10.5t-2.5 12v96q0 13 9.5 22.5t22.5 9.5q7 0 13 -2.5t10 -7t6.5 -10.5t2.5 -12v-96
q0 -13 -9.5 -22.5t-22.5 -9.5zM749 288q67 0 115 46.5t48 111.5q0 44 -22 80.5t-59.5 57.5t-81.5 21q-11 0 -16 -2q-12 29 -32.5 54t-46.5 42t-57.5 27t-65.5 10q-83 0 -144.5 -53t-71.5 -131h-1q-28 0 -53 -10.5t-43.5 -28t-29 -42t-10.5 -50.5q0 -36 18 -66t49.5 -47.5
t68.5 -17.5zM184 570q38 29 77 38q7 22 18 43t25.5 39t31.5 33.5t37 28.5t41 22q-19 41 -57.5 65.5t-84.5 24.5q-3 0 -7 -1q-3 -1 -4 -1q5 -11 7 -22t2 -24q0 -47 -32.5 -79.5t-79.5 -32.5q-4 0 -9 0.5t-9.5 1t-9.5 2.5l-8 2q-5 2 -8 4q0 -2 -1 -5q-1 -4 -1 -5
q0 -28 9 -53.5t25 -46t38 -34.5zM339 0zM307 0q0 7 2.5 12.5t7 10t10.5 7t12 2.5q13 0 22.5 -9.5t9.5 -22.5q0 -4 -1 -8.5t-3 -8t-5 -6.5t-6.5 -5t-7.5 -3t-9 -1q-13 0 -22.5 9.5t-9.5 22.5zM467 -64zM435 -64q0 7 2.5 12.5t7 10t10.5 7t12 2.5q13 0 22.5 -9.5t9.5 -22.5
q0 -4 -0.5 -7.5t-2.5 -6.5l-4 -6q-2 -3 -5 -5t-6 -3.5t-6.5 -2.5t-7.5 -1q-13 0 -22.5 9.5t-9.5 22.5zM595 32zM563 32q0 13 9.5 22.5t22.5 9.5t22.5 -9.5t9.5 -22.5t-9.5 -22.5t-22.5 -9.5t-22.5 9.5t-9.5 22.5zM723 -64zM691 -64q0 13 9.5 22.5t22.5 9.5t22.5 -9.5
t9.5 -22.5t-9.5 -22.5t-22.5 -9.5t-22.5 9.5t-9.5 22.5z" />
    <glyph glyph-name="uniE64C" unicode="&#xe64c;" 
d="M280 256h437q81 0 138 56t57 134t-55.5 133t-136.5 58q-33 60 -92.5 95.5t-129.5 35.5q-35 0 -74 -11q-11 40 -37.5 71.5t-65 49.5t-81.5 18q-8 0 -11 -2h-3l-47 -3l19 -41q3 -6 4.5 -11.5t2.5 -11.5t1 -11q0 -34 -23 -57t-57 -23q-19 0 -32 6l-41 20l-3 -45v-2
q-2 -5 -2 -11q0 -57 30 -103.5t79 -69.5q-45 -50 -45 -112q0 -67 49 -115t119 -48zM499 704q57 0 104 -30.5t69 -81.5l10 -22l24 1h12q55 0 93.5 -37t38.5 -89t-39 -89.5t-93 -37.5h-436q-29 0 -53 13.5t-37.5 36.5t-13.5 50q0 40 30 69.5t72 29.5l32 -2l3 29q9 69 61 114.5
t123 45.5zM115 674h11q60 0 102 42t42 102v11q18 -4 34 -13.5t28.5 -22t21 -28.5t12.5 -34q-85 -53 -110 -149l-24 -4q-14 0 -27.5 4t-25 10t-22 14.5t-18.5 19t-14 22.5t-10 26zM560 192q-13 0 -22.5 -9.5t-9.5 -22.5v-96q0 -13 9.5 -22.5t22.5 -9.5t22.5 9.5t9.5 22.5v96
q0 13 -9.5 22.5t-22.5 9.5zM432 192q-13 0 -22.5 -9.5t-9.5 -22.5v-160q0 -13 9.5 -22.5t22.5 -9.5t22.5 9.5t9.5 22.5v160q0 13 -9.5 22.5t-22.5 9.5zM304 192q-13 0 -22.5 -9.5t-9.5 -22.5v-166q-60 44 -130 36q-13 -1 -21.5 -11.5t-7 -23.5t12 -21.5t23.5 -7.5
q41 4 76 -17t52 -58l1 -1l2 -4q1 -1 2 -1l1 -2q4 -3 7 -5h1q1 0 3.5 -1t3.5 -2h1q2 0 4.5 -0.5t3.5 -0.5h3h4h2l2 1q2 0 2 2q2 0 3 1l2 2l1 2q2 1 2 3l2 1q0 2 1 4q1 1 2 3v1q0 1 1 2q0 2 2 3v3v2v256q0 13 -9.5 22.5t-22.5 9.5zM850 30q-36 4 -69 -5.5t-61 -30.5v166
q0 13 -9.5 22.5t-22.5 9.5t-22.5 -9.5t-9.5 -22.5v-256v-2v-3l2 -3v0l1 -3q1 -2 2 -3q0 -2 1 -4l2 -1q0 -1 1 -2l1 -1l1 -2l2 -2q1 0 3 -1q2 0 2 -2l2 -1h2h2h2h4q5 0 8 1h2q1 0 3 1t3 2h2q1 1 3.5 2.5t2.5 2.5l2 2q1 0 1.5 1.5t1.5 3t2 1.5q17 37 52 58t76 17
q13 -1 23.5 7.5t11.5 21.5t-8 23.5t-22 11.5zM410 -74q-10 -7 -10 -22q0 -13 9.5 -22.5t22.5 -9.5q3 0 6 0.5t6 2t5.5 3t4.5 4.5q10 9 10 22t-9.5 22.5t-23 9.5t-21.5 -10zM538 -10q-2 -1 -3.5 -3t-3 -4.5t-1.5 -4.5l-2 -6v-4v-4l2 -4v-4q1 -2 2 -3.5t2.5 -3.5t3.5 -3
q9 -10 22 -10q13 1 22 10l4 4l2 4q2 2 2 4l2 6v4v4l-2 4v4q-1 2 -2 3.5t-2.5 3.5t-3.5 3q-9 10 -22.5 10t-21.5 -10zM922 22q-2 -1 -3.5 -3t-3 -4.5t-1.5 -4.5l-2 -6v-4v-4q0 -1 0.5 -3t1 -3.5t1.5 -3.5l2 -2l2 -4q1 -1 3 -2l4 -4l4 -2q2 -2 4 -2l6 -2h4q6 0 12 2.5t10 7.5
q3 2 4.5 4.5t3 5.5t2 6t0.5 6q-1 13 -10 22q-9 10 -22.5 10t-21.5 -10z" />
    <glyph glyph-name="uniE64D" unicode="&#xe64d;" 
d="M544 224q-13 0 -22.5 -9.5t-9.5 -22.5v-96q0 -13 9.5 -22.5t22.5 -9.5t22.5 9.5t9.5 22.5v96q0 13 -9.5 22.5t-22.5 9.5zM416 224q-13 0 -22.5 -9.5t-9.5 -22.5v-160q0 -13 9.5 -22.5t22.5 -9.5t22.5 9.5t9.5 22.5v160q0 13 -9.5 22.5t-22.5 9.5zM320 -64v256
q0 13 -9.5 22.5t-22.5 9.5t-22.5 -9.5t-9.5 -22.5v-166q-60 44 -130 36q-13 -1 -21.5 -11.5t-7 -23.5t11.5 -21.5t24 -7.5q41 4 76 -17t52 -58l1 -1l2 -4q1 -1 2 -1l1 -2q4 -3 7 -5h1q1 0 3.5 -1t3.5 -2h1q2 0 4.5 -0.5t3.5 -0.5h3h4h1q1 0 2.5 0.5t2.5 0.5q2 0 2 2q1 0 3 1
l1 2l2 2q2 1 2 3l1 1l2 4q0 1 1 3v1l2 2v3v5v0zM834 62q-18 2 -35.5 0t-34 -6.5t-31.5 -12t-29 -17.5v166q0 13 -9.5 22.5t-22.5 9.5t-22.5 -9.5t-9.5 -22.5v-256v0v-2v-4v-4q0 -1 2 -3q0 -1 0.5 -1.5t0.5 -1.5q1 -2 2 -3l1 -2q1 -1 2 -3l2 -2l1 -1q1 0 2 -1l1 -1l2 -1
q1 0 2 -1q2 -1 3 -1h1h4h3q5 0 8 2h1l7 3h1q1 1 3.5 2.5t3.5 2.5l1 1q1 1 2.5 3.5t2.5 3.5q17 37 52 57.5t76 17.5q7 -1 13 1t11 6t8 9.5t3 12.5q2 14 -6.5 24.5t-21.5 11.5zM394 -42q-10 -9 -10 -22t9.5 -22.5t22.5 -9.5h4l4 2h4q2 1 3.5 2t3.5 2.5t3 3.5q10 9 10 22
q0 4 -1 8t-3 7.5t-6 6.5q-8 10 -22 10t-22 -10zM522 22q-10 -10 -10 -22v-4l2 -4v-4q1 -2 2 -3.5t2.5 -3.5t3 -3.5t3.5 -3t3.5 -2.5t3.5 -2h4l4 -2h4q6 0 12 2.5t10.5 7t7 10.5t2.5 12v4l-2 4v4q-1 2 -2 3.5t-2.5 3.5t-3.5 3q-5 7 -13.5 9t-17 0t-13.5 -9zM950 54
q-4 5 -10.5 7t-12.5 2t-11.5 -2t-9.5 -7l-4 -4l-2 -4q-2 -2 -2 -4l-2 -6v-4q1 -13 10 -22q9 -10 22 -10q4 0 8 1t7.5 3t6.5 6l4 4l2 4q2 2 2 4l2 6v4q-1 13 -10 22zM701 605h-16q-12 29 -32.5 53.5t-46.5 42t-57.5 27.5t-65.5 10q-83 0 -144.5 -53t-71.5 -131h-1
q-57 0 -96.5 -39t-39.5 -93q0 -35 18 -65t49.5 -48t68.5 -18h436q68 0 116 46.5t48 112.5q-1 30 -14.5 58.5t-35.5 50t-52 34t-63 12.5zM138 570q37 29 76 38q8 22 19 43t25 39t31.5 33.5t37 28.5t41.5 22q-14 28 -35.5 48t-49.5 31t-59 11q-3 0 -7 -1q-3 -1 -4 -1
q9 -22 9 -46q0 -47 -32.5 -79.5t-79.5 -32.5q-4 0 -9 0.5t-9.5 1t-9.5 2.5l-8 2q-5 2 -8 4q0 -2 -0.5 -3.5t-1 -3.5t-0.5 -3q0 -41 20 -77t54 -57z" />
    <glyph glyph-name="uniE64E" unicode="&#xe64e;" 
d="M795 736q-25 48 -66.5 84.5t-93 56t-107.5 19.5q-51 0 -99 -17t-86.5 -46.5t-66.5 -71.5t-41 -91q-6 1 -12 1.5t-15 0.5q-86 0 -147 -61t-61 -147t61 -147t147 -61h576q100 0 170 70t70 170q0 96 -66.5 165.5t-162.5 74.5zM784 320h-576q-60 0 -102 42t-42 102t42 102
t102 42q8 0 14.5 -0.5t13.5 -2t14 -3.5l35 -12l5 37q14 88 81.5 146.5t156.5 58.5q28 0 55.5 -6.5t51.5 -19t45.5 -29.5t38.5 -39.5t28 -47.5l10 -20l25 2h4q48 0 88.5 -23.5t64 -64t23.5 -88.5q-2 -73 -53.5 -124.5t-124.5 -51.5zM211 186q-11 8 -23.5 6.5t-21.5 -11.5
l-40 -51q-8 -11 -7 -24t12 -21t21 -8q5 0 9.5 1.5t8.5 4.5t8 7l40 51q7 9 5.5 22.5t-12.5 22.5zM403 186q-11 8 -23.5 7t-21.5 -12l-145 -181q-9 -11 -7.5 -23.5t12.5 -21.5q1 -1 3 -2l4 -2q2 -1 4 -1.5t4 -0.5h4q15 0 25 13l146 180q4 5 6 10.5t1.5 11.5t-4 12t-8.5 10z
M595 186q-3 2 -6.5 3.5t-6.5 2t-6.5 0.5t-7 -0.5t-6.5 -2t-6 -3.5t-6 -5l-38 -50q-8 -11 -7 -23.5t12 -21.5q8 -6 19 -6q15 0 26 13l40 49q3 4 4.5 8t1.5 9t-1.5 10t-4.5 9t-7 8zM648 -42l146 181q16 22 -1 41q-2 3 -4 4q-11 8 -24 7t-21 -12l-146 -181q-8 -10 -7 -23
t12 -21q5 -4 9.5 -5.5t9.5 -1.5q17 0 26 11zM67 54q-9 -9 -9 -22t9 -22q5 -5 10.5 -7.5t12.5 -2.5q12 0 22 9.5t10 22.5q0 4 -1.5 8t-3.5 7.5t-5 6.5q-8 10 -22 10t-23 -10zM179 -128q13 1 23 10q9 9 9 22t-9 22t-23 9t-22 -9q-10 -9 -10 -22t9.5 -22.5t22.5 -9.5zM451 54
q-9 -10 -9 -22q0 -13 9.5 -22.5t22 -9.5t22.5 10q9 10 10 22q0 4 -1.5 8t-3.5 7.5t-5 6.5q-5 7 -13.5 9t-17 0t-14.5 -9zM586 -118q4 4 6.5 10t2.5 12v4q0 2 -0.5 4t-1.5 4t-2 3.5t-2.5 3.5t-2.5 3q-6 6 -14.5 8t-17 0t-13.5 -8q-5 -4 -7.5 -10t-2.5 -12q0 -2 1 -4v-4l2 -4
q0 -2 1.5 -3.5t2.5 -3.5t3 -3q9 -10 22 -10q13 1 23 10z" />
    <glyph glyph-name="uniE64F" unicode="&#xe64f;" 
d="M336 864v-64q0 -13 9.5 -22.5t22.5 -9.5t22.5 9.5t9.5 22.5v64q0 13 -9.5 22.5t-22.5 9.5t-22.5 -9.5t-9.5 -22.5zM48 576q-13 0 -22.5 -9.5t-9.5 -22.5t9.5 -22.5t22.5 -9.5h64q13 0 22.5 9.5t9.5 22.5t-9.5 22.5t-22.5 9.5h-64zM128 738l37 -37q1 -2 3 -3t3.5 -2.5
t3.5 -1.5l4 -2h4q2 -1 4 -1q13 1 23 10q3 4 5.5 8.5t3.5 9t0 9.5t-3.5 9.5t-5.5 8.5l-36 38q-9 10 -22 10t-22 -10q-11 -9 -11.5 -23t9.5 -23zM563 784l-37 -37q-9 -9 -9 -22t9 -23q11 -9 23 -9q3 0 6 0.5t5.5 1.5t5.5 3t5 4l37 36q6 6 8.5 14t0 16t-8.5 14q-9 10 -23 10.5
t-22 -8.5zM128 304q10 -9 22 -10q7 0 12.5 2.5t10.5 7.5l37 37q9 9 9 22t-9 23q-5 4 -11 6.5t-12 2.5t-11.5 -2.5t-10.5 -6.5l-37 -37q-10 -9 -10 -22t10 -23zM1008 352q0 74 -49.5 128.5t-121.5 61.5q-30 60 -87.5 95t-125.5 35q-48 0 -98 -21q-26 40 -68 62.5t-90 22.5
q-79 0 -135.5 -56.5t-56.5 -135.5q0 -47 21.5 -88t58.5 -67q-8 -17 -12 -34t-4 -35q0 -66 47 -113t113 -47h416q79 0 135.5 56.5t56.5 135.5zM240 544q0 53 37.5 90.5t90.5 37.5q31 0 58.5 -14.5t45.5 -39.5q-12 -10 -23.5 -22t-20.5 -25.5t-17 -28t-13.5 -30.5t-8.5 -32
q-53 -5 -96 -40q-16 12 -28 28t-18.5 36t-6.5 40zM816 224h-416q-40 0 -68 28t-28 68t28 68t68 28q6 0 10 -2l36 -4l2 33q3 34 18 65t38.5 52.5t54.5 34.5t65 13q54 0 97.5 -29.5t65.5 -79.5l8 -19h21q53 0 90.5 -37.5t37.5 -90.5t-37.5 -90.5t-90.5 -37.5zM357 122
q-11 8 -24 7t-21 -12l-18 -21q-8 -11 -7 -23.5t12 -21.5q3 -2 6.5 -3.5t7 -2t7.5 -0.5q15 1 26 11l17 21q7 9 5 22.5t-11 22.5zM381 -46q8 -7 19 -7q15 1 26 13l94 118q8 11 7 24t-12 21q-7 6 -15.5 7.5t-16 -2t-13.5 -10.5l-94 -118q-5 -8 -6.5 -17t1.5 -17t10 -12z
M677 122q-7 5 -15.5 6t-16 -2t-13.5 -9l-16 -21q-8 -11 -6.5 -23.5t11.5 -21.5q3 -2 6.5 -3.5t6.5 -2t6 -0.5q15 0 26 13l16 20q8 9 6.5 22t-11.5 22zM701 -46q8 -7 19 -7q15 0 26 13l94 118q8 11 7 24t-12 21q-7 6 -15.5 7.5t-16 -2t-13.5 -10.5l-94 -118
q-8 -12 -6.5 -25.5t11.5 -20.5zM240 27.5q-10 -9.5 -10 -22.5t10 -22.5t22.5 -9.5t22.5 9q9 11 9 23q0 13 -9 22q-9 10 -22 10t-23 -9.5zM320 -74q-9 -10 -10 -22q0 -13 10 -22.5t22 -9.5h4l4 2h4l4 2l4 2l3 4q9 10 9 22q0 13 -9 22q-9 10 -23 10t-22 -10zM560 27
q-9 -10 -10 -22q0 -3 1 -6l2 -6q1 -3 3 -5.5t4 -5.5q5 -4 10.5 -6.5t11.5 -2.5q13 0 23 9q9 11 9 23q0 3 -0.5 6t-1.5 5.5t-3 5.5t-4 5q-9 10 -22 10t-23 -10zM640 -74q-9 -10 -10 -22q0 -3 1 -6l2 -6q1 -3 3 -5.5t4 -4.5q5 -5 10.5 -7.5t11.5 -2.5h4l4 2h4l4 2l4 2l3 4
q3 3 5 6.5t3 7.5t1 8q0 3 -0.5 6t-1.5 6t-3 5.5t-4 4.5q-9 10 -23 10t-22 -10z" />
    <glyph glyph-name="uniE650" unicode="&#xe650;" 
d="M360 54l18 21q8 11 7 24t-12 21t-24 7t-21 -12l-18 -21q-8 -10 -7 -23t12 -21q3 -3 6.5 -4.5t7 -2t7.5 -0.5q13 1 24 11zM533 122q-6 4 -12 5.5t-12 1t-11.5 -3.5t-9.5 -8l-94 -119q-9 -10 -7.5 -23t11.5 -21q3 -2 5.5 -3.5t4.5 -2t4.5 -1t5.5 -0.5q15 1 25 13l95 118
q8 9 6.5 22t-11.5 22zM680 54l16 21q8 11 6.5 23.5t-11.5 21.5q-7 6 -15.5 7t-16 -2t-13.5 -10l-16 -21q-8 -11 -6.5 -23.5t11.5 -20.5q5 -4 9.5 -5.5t9.5 -1.5q15 1 26 11zM853 122q-7 5 -15.5 6.5t-16.5 -1.5t-13 -10l-94 -119q-20 -25 4 -44q4 -3 7 -4.5t6 -2t7 -0.5
q3 0 6.5 1t7 2.5t6.5 4t5 5.5l95 118q8 9 6.5 22t-11.5 22zM256 27.5q-10 -9.5 -10 -22.5t10 -22.5t22.5 -9.5t22.5 9q9 11 9 23q0 13 -9 22q-9 10 -22 10t-23 -9.5zM336 -74q-9 -10 -10 -22q0 -13 10 -22.5t22 -9.5h4l4 2h4l4 2l4 2l3 4q9 10 9 22q0 13 -9 22q-9 10 -23 10
t-22 -10zM576 27q-9 -10 -10 -22q0 -3 1 -6l2 -6q1 -3 3 -5.5t4 -5.5q5 -4 10.5 -6.5t11.5 -2.5q13 0 23 9q9 11 9 23q0 4 -1 8t-3 8t-5 6q-9 10 -22 10t-23 -10zM656 -74q-9 -10 -10 -22q0 -3 1 -6l2 -6q1 -3 3 -5.5t4 -4.5q3 -4 7 -6t7.5 -3t7.5 -1t8 1t8 3t7 6q9 10 9 22
q0 13 -9 22q-9 10 -23 10t-22 -10zM384 752q13 0 22.5 9.5t9.5 22.5v80q0 13 -9.5 22.5t-22.5 9.5t-22.5 -9.5t-9.5 -22.5v-80q0 -13 9.5 -22.5t22.5 -9.5zM176 544q0 13 -9.5 22.5t-22.5 9.5h-80q-13 0 -22.5 -9.5t-9.5 -22.5t9.5 -22.5t22.5 -9.5h80q13 0 22.5 9.5
t9.5 22.5zM197 686q10 -9 22 -9h4q2 0 4 0.5t4 1.5l4 2q2 1 3.5 2.5t3.5 2.5q4 5 6.5 11t2.5 12t-2.5 11.5t-6.5 10.5l-52 53q-9 10 -22 10t-22.5 -10t-9.5 -22.5t10 -22.5zM549 677q13 1 22 9l53 52q6 6 8.5 14t0 16t-8.5 14q-10 10 -22.5 10t-22.5 -10l-53 -52
q-6 -7 -8 -15t0 -16t8 -14q5 -4 11 -6t12 -2zM241.5 401.5q-9.5 9.5 -22.5 9.5t-22 -9l-53 -53q-10 -10 -10 -22.5t10 -22.5q10 -9 22 -10q7 0 12.5 2.5t10.5 7.5l53 53q9 8 9 21.5t-9.5 23zM832 512q-24 57 -76 92.5t-116 35.5q-83 0 -142.5 -56t-65.5 -138q-5 2 -16 2
q-53 0 -90.5 -37.5t-37.5 -90.5t37.5 -90.5t90.5 -37.5h416q66 0 113 47t47 113t-47 113t-113 47zM264 438q11 14 23.5 25.5t27 20.5t31 15.5t33.5 9.5q15 48 44 86.5t70 65.5q-46 43 -109 43q-66 0 -113 -47t-47 -113q0 -60 40 -106z" />
    <glyph glyph-name="uniE651" unicode="&#xe651;" 
d="M784 704h-8q-33 72 -99.5 116t-148.5 44q-40 0 -78 -11.5t-70 -32.5t-57 -49.5t-41.5 -64t-22.5 -74.5q-26 8 -51 8q-73 0 -124.5 -51.5t-51.5 -124.5t51.5 -124.5t124.5 -51.5h574h2q86 0 147 61t61 147t-61 147t-147 61zM168 109q-13 0 -19 6q-11 9 -12 21.5t7 23.5
l40 51q8 11 21 12t24 -7t12 -21t-7 -24l-42 -49q-5 -7 -11 -10t-13 -3zM254 -21q-12 0 -19 7q-11 8 -12 21t7 23l146 181q8 11 21 12t24 -7t12 -21t-7 -24l-146 -181q-2 -3 -5 -5t-6.5 -3.5t-7 -2t-7.5 -0.5zM552 110q-13 0 -19 7q-11 8 -12 21t7 24l40 49q8 11 21 12t24 -7
t12 -21t-7 -24l-40 -49q-12 -12 -26 -12zM638 -21q-12 0 -19 7q-11 8 -12 21t7 23l146 181q8 11 21 12t24 -7t12 -21t-7 -24l-146 -181q-9 -11 -26 -11zM106 32q-13 1 -23 10q-5 4 -7 10t-2 12q0 4 1 8t3 7.5t5 6.5q9 10 23 10t22 -10q10 -9 10 -22q0 -6 -2.5 -12
t-7.5 -10.5t-10.5 -7t-11.5 -2.5zM195 -96h-4l-4 2h-4q-2 1 -3.5 2t-3.5 2.5t-3 3.5q-10 9 -10 22q0 4 1 8t3.5 7.5t5.5 6.5t6 4.5t6.5 2.5t7 1.5t7 0t6.5 -1.5t6 -2.5t6 -4.5q9 -9 9 -22t-9 -22q-5 -5 -11 -7.5t-12 -2.5zM490 32q-13 1 -23 10q-9 10 -9 22q0 13 9.5 22.5
t23 9.5t21.5 -10q9 -10 10 -22q0 -3 -1 -6l-2 -6q-1 -3 -3 -6l-4 -4q-2 -3 -5 -4.5t-5.5 -3t-5.5 -2t-6 -0.5zM579 -96q-6 0 -11.5 2.5t-10.5 7.5q-9 10 -10 22q1 13 10 22q6 6 14.5 8t16.5 0t14 -8q4 -4 6.5 -10t2.5 -12q-1 -13 -9 -22q-5 -5 -11 -7.5t-12 -2.5z" />
    <glyph glyph-name="uniE652" unicode="&#xe652;" 
d="M542 706q32 -59 32 -127q0 -27 -5.5 -54t-15.5 -50.5t-24.5 -45.5t-32.5 -40t-40 -32.5t-45.5 -25t-50.5 -16t-54 -5.5q-30 0 -59 7t-55 19q18 -116 108 -194t210 -78q66 0 125.5 25.5t102.5 68.5t68.5 102.5t25.5 125.5q0 61 -22.5 117.5t-61 98.5t-92 70t-114.5 34z
" />
    <glyph glyph-name="uniE653" unicode="&#xe653;" 
d="M514 -128q103 0 197.5 40.5t163 109t109 163t40.5 197.5q0 98 -35.5 187.5t-96 156.5t-146 110.5t-181.5 53.5l-59 6l28 -53q43 -80 44 -174q0 -99 -49.5 -183.5t-134 -134t-183.5 -49.5q-41 0 -79.5 9t-75.5 27l-56 25l10 -59q19 -123 90.5 -222t180 -154.5t233.5 -55.5
zM210 238q87 0 167 34.5t138 92t92.5 137.5t34.5 167q0 37 -7 74t-19 73q98 -22 176.5 -84.5t123 -154t44.5 -195.5q0 -90 -35.5 -173t-95 -142.5t-142.5 -95t-173 -35.5q-152 0 -270 89.5t-159 232.5q12 -4 24.5 -7t25 -5.5t25 -4t25 -2.5t25.5 -1z" />
    <glyph glyph-name="uniE654" unicode="&#xe654;" 
d="M557 862q48 -88 48 -188q0 -109 -53.5 -201t-146 -145.5t-200.5 -53.5q-88 0 -170 38q13 -85 55.5 -160.5t104.5 -129.5t143.5 -85t170.5 -31q98 0 186.5 37.5t153 102t102.5 153.5t38 187q0 91 -33.5 175t-91 147t-137.5 104.5t-170 49.5z" />
    <glyph glyph-name="uniE655" unicode="&#xe655;" 
d="M768 621l38 25l-38 28q-92 62 -200 62q-145 0 -248.5 -103.5t-103.5 -248.5t103.5 -248.5t248.5 -103.5q111 0 200 62l38 26l-38 27q-59 41 -92 103.5t-33 133.5t33 134t92 103zM579 384q0 -49 13.5 -96.5t39.5 -89t62 -73.5q-19 -10 -39.5 -16.5t-42 -9.5t-42.5 -3
q-119 0 -203.5 84.5t-84.5 203.5q0 78 38.5 144.5t105 105t144.5 38.5q67 0 124 -29q-55 -49 -85 -116.5t-30 -142.5z" />
    <glyph glyph-name="uniE656" unicode="&#xe656;" 
d="M624 384q0 40 10 79t28 72.5t43.5 62t57.5 50.5q-81 56 -181 56q-86 0 -160 -43t-117 -116.5t-43 -160.5t43 -160.5t117 -116.5t160 -43q100 0 181 56q-64 44 -101.5 113.5t-37.5 150.5z" />
    <glyph glyph-name="uniE657" unicode="&#xe657;" 
d="M894 754l39 25l-39 26q-64 45 -138 68t-153 23q-104 0 -198.5 -40.5t-163 -109.5t-109.5 -163.5t-41 -198.5t41 -198.5t109.5 -163.5t163 -109.5t198.5 -40.5q161 0 290 90l38 25l-38 26q-91 65 -142.5 163t-51.5 208t52 208t143 162zM635 384q0 -114 48.5 -217
t135.5 -175q-100 -56 -216 -56q-91 0 -173.5 35.5t-143 95.5t-96 143t-35.5 174q0 61 16.5 119t45 107t70 90.5t91 70.5t107.5 45t118 16q114 0 216 -56q-57 -48 -98.5 -110t-63.5 -134.5t-22 -147.5z" />
    <glyph glyph-name="uniE658" unicode="&#xe658;" 
d="M680 384q0 121 56 225t152 170q-123 85 -272 85q-199 0 -339.5 -140.5t-140.5 -339.5t140.5 -339.5t339.5 -140.5q149 0 272 85q-96 66 -152 169.5t-56 225.5z" />
    <glyph glyph-name="uniE659" unicode="&#xe659;" 
d="M512 736q-145 0 -248.5 -103.5t-103.5 -248.5t103.5 -248.5t248.5 -103.5t248.5 103.5t103.5 248.5t-103.5 248.5t-248.5 103.5zM512 96v576q119 0 203.5 -84.5t84.5 -203.5t-84.5 -203.5t-203.5 -84.5z" />
    <glyph glyph-name="uniE65A" unicode="&#xe65a;" 
d="M336 864v-64q0 -13 9.5 -22.5t22.5 -9.5t22.5 9.5t9.5 22.5v64q0 13 -9.5 22.5t-22.5 9.5t-22.5 -9.5t-9.5 -22.5zM48 512h64q13 0 22.5 9.5t9.5 22.5t-9.5 22.5t-22.5 9.5h-64q-13 0 -22.5 -9.5t-9.5 -22.5t9.5 -22.5t22.5 -9.5zM128 738l37 -37q1 -2 3 -3t3.5 -2.5
t3.5 -1.5l4 -2h4q2 -1 4 -1q13 1 23 10q3 4 5.5 8.5t3.5 9t0 9.5t-3.5 9.5t-5.5 8.5l-36 38q-9 10 -22 10t-22 -10q-11 -9 -11.5 -23t9.5 -23zM563 784l-37 -37q-9 -9 -9 -22t9 -23q11 -9 23 -9q3 0 6 0.5t5.5 1.5t5.5 3t5 4l37 36q6 6 8.5 14t0 16t-8.5 14q-9 10 -23 10.5
t-22 -8.5zM165 386l-37 -37q-10 -10 -10 -22.5t10 -22.5q10 -9 22 -10q7 0 12.5 2.5t10.5 7.5l37 37q9 9 9 22t-9 23q-5 4 -11 6.5t-12 2.5t-11.5 -2.5t-10.5 -6.5zM837 542q-30 60 -87.5 95t-125.5 35q-48 0 -98 -21q-26 40 -68 62.5t-90 22.5q-79 0 -135.5 -56.5
t-56.5 -135.5q0 -47 21.5 -88t58.5 -67q-8 -17 -12 -34t-4 -35q0 -66 47 -113t113 -47h416q79 0 135.5 56.5t56.5 135.5q0 74 -49.5 128.5t-121.5 61.5zM240 544q0 53 37.5 90.5t90.5 37.5q31 0 58.5 -14.5t45.5 -39.5q-12 -10 -23.5 -22t-20.5 -25.5t-17 -28t-13.5 -30.5
t-8.5 -32q-53 -5 -96 -40q-16 12 -28 28t-18.5 36t-6.5 40zM816 224h-416q-40 0 -68 28t-28 68t28 68t68 28q6 0 10 -2l36 -4l2 33q3 34 18 65t38.5 52.5t54.5 34.5t65 13q54 0 97.5 -29.5t65.5 -79.5l8 -19h21q53 0 90.5 -37.5t37.5 -90.5t-37.5 -90.5t-90.5 -37.5z
M357 122q-11 8 -24 7t-21 -12l-72 -91q-8 -11 -7 -24t12 -21q8 -7 19 -7q15 1 26 13l72 91q4 4 5.5 10t0.5 12t-3.5 11.5t-7.5 10.5zM322 -122q8 -6 19 -6q15 1 25 13l154 192q8 11 7 23.5t-12 21.5q-7 5 -15.5 6.5t-16 -1.5t-13.5 -10l-153 -192q-8 -11 -6.5 -24.5
t11.5 -22.5zM677 122q-7 5 -15.5 6.5t-16.5 -1.5t-13 -10l-72 -91q-8 -11 -7 -24t12 -21q8 -7 19 -7q15 0 26 13l72 91q8 9 6.5 22t-11.5 22zM642 -122q8 -6 19 -6q3 0 7 1t7 2.5t6 4t5 5.5l154 192q3 3 4.5 7t2.5 8t0.5 8t-2 8t-4 7.5t-6.5 6.5q-11 8 -23.5 7t-21.5 -12
l-153 -192q-4 -5 -6 -11.5t-1 -13t4 -12t8 -10.5z" />
    <glyph glyph-name="uniE65C" unicode="&#xe65c;" 
d="M296 186q-7 5 -15.5 6.5t-16 -1.5t-13.5 -10l-102 -128q-9 -11 -7.5 -24t12.5 -21q8 -6 19 -6q15 0 25 12l103 128q5 6 6.5 14t-2 16t-9.5 14zM210 -122q8 -6 19 -6q7 0 14 3.5t11 9.5l205 256q9 11 7.5 23.5t-12.5 21.5q-5 4 -11 5.5t-12 1t-11.5 -3.5t-9.5 -8
l-205 -256q-8 -11 -6.5 -24.5t11.5 -22.5zM472 6q9 -6 19 -6q16 1 26 13l102 128q20 25 -5 45q-10 8 -23 7t-21 -12l-103 -128q-5 -7 -6 -16t2 -17t9 -14zM530 -122q8 -6 19 -6q7 0 14 3.5t11 9.5l205 256q9 11 7.5 23.5t-12.5 21.5q-7 5 -15 6.5t-16 -1.5t-13 -10
l-205 -256q-4 -5 -6 -11.5t-1 -13t4 -12t8 -10.5zM80 704q0 -57 30 -103.5t79 -69.5q-45 -50 -45 -112q0 -67 49 -115t119 -48h437q39 0 75.5 15t62.5 41t41.5 61t15.5 73q0 78 -55.5 133t-136.5 58q-33 60 -92.5 95.5t-129.5 35.5q-35 0 -74 -11q-17 61 -68 100t-116 39
q-79 0 -135.5 -56.5t-56.5 -135.5zM530 704q57 0 104 -30.5t68 -81.5l10 -22l24 1h13q54 0 92.5 -37t38.5 -89t-38.5 -89.5t-92.5 -37.5h-437q-28 0 -52 13.5t-38 36.5t-14 50q0 40 30 69.5t72 29.5l32 -2l4 29q8 69 61 114.5t123 45.5zM272 832q46 0 81 -29t44 -73
q-86 -53 -111 -149l-24 -5q-49 4 -83.5 40.5t-34.5 87.5q0 53 37.5 90.5t90.5 37.5z" />
    <glyph glyph-name="uniE65D" unicode="&#xe65d;" 
d="M171 32q-3 0 -6.5 0.5t-7 2t-5.5 3.5q-11 9 -12 21.5t7 23.5l103 128q5 7 13 10t16 2t15 -7q11 -8 12.5 -21t-7.5 -24l-102 -128q-11 -11 -26 -11zM229 -96q-13 0 -19 6q-11 9 -12.5 21.5t7.5 23.5l205 256q8 11 21 12t23.5 -7t12 -21t-7.5 -24l-205 -256
q-11 -11 -25 -11zM491 32q-3 0 -6.5 0.5t-7 2t-5.5 3.5q-11 9 -12 21.5t7 23.5l103 128q8 11 21 12t23.5 -7t12 -21t-7.5 -24l-102 -128q-11 -11 -26 -11zM549 -96q-13 0 -19 6q-11 9 -12.5 21.5t7.5 23.5l205 256q8 11 21 12t23.5 -7t12 -21t-7.5 -24l-205 -256
q-11 -11 -25 -11zM749 605h-16q-12 29 -32.5 53.5t-46.5 42t-57.5 27.5t-65.5 10q-83 0 -144.5 -53t-71.5 -131h-1q-28 0 -53 -10.5t-43.5 -28.5t-29 -42t-10.5 -51q0 -35 18 -65t49.5 -48t68.5 -18h436q68 0 116 46.5t48 112.5q-1 41 -23.5 76.5t-60 57t-81.5 21.5z
M262 610q18 55 58.5 98.5t95.5 67.5q-21 39 -59.5 63.5t-84.5 24.5q-66 0 -113 -47t-47 -113q0 -28 9 -53.5t25 -46t38 -34.5q31 27 78 40z" />
    <glyph glyph-name="uniE65E" unicode="&#xe65e;" 
d="M152 6q3 -2 6.5 -3.5t6.5 -2t6 -0.5q7 0 14 3.5t12 9.5l102 128q9 11 7.5 23.5t-12.5 21.5q-7 5 -15 6.5t-16 -1.5t-13 -10l-103 -128q-5 -7 -6 -16t2 -17t9 -14zM210 -122q8 -6 19 -6q7 0 14 3.5t11 9.5l205 256q9 11 7.5 23.5t-12.5 21.5q-5 4 -11 5.5t-12 1
t-11.5 -3.5t-9.5 -8l-205 -256q-8 -11 -6.5 -24.5t11.5 -22.5zM472 6q9 -6 19 -6q16 1 26 13l102 128q20 25 -5 45q-10 8 -23 7t-21 -12l-103 -128q-5 -7 -6 -16t2 -17t9 -14zM530 -122q8 -6 19 -6q7 0 14 3.5t11 9.5l205 256q9 11 7.5 23.5t-12.5 21.5q-7 5 -15 6.5
t-16 -1.5t-13 -10l-205 -256q-4 -5 -6 -11.5t-1 -13t4 -12t8 -10.5zM189 531q-45 -50 -45 -112q0 -67 49 -115t119 -48h437q39 0 75.5 15t62.5 41t41.5 61t15.5 73q0 78 -55.5 133t-136.5 58q-33 60 -92.5 95.5t-129.5 35.5q-43 0 -74 -11q-17 61 -68 100t-116 39l-11 -2h-3
l-47 -3l19 -41q3 -6 4.5 -11.5t2.5 -11.5t1 -11q0 -34 -23 -57t-57 -23q-19 0 -32 6l-41 20l-3 -45v-2q-2 -5 -2 -11q0 -57 30 -103.5t79 -69.5zM530 704q57 0 104 -30.5t68 -81.5l10 -22l24 1h13q54 0 92.5 -37t38.5 -89t-38.5 -89.5t-92.5 -37.5h-437q-28 0 -52 13.5
t-38 36.5t-14 50q0 40 30 69.5t72 29.5l32 -2l4 29q8 69 61 114.5t123 45.5zM158 672q60 0 102 42t42 102v11q36 -8 62 -34.5t34 -62.5q-85 -53 -110 -149l-24 -5q-43 2 -74 29t-41 67h9z" />
    <glyph glyph-name="uniE65F" unicode="&#xe65f;" 
d="M173 32q-4 0 -7 0.5t-6.5 2t-5.5 3.5q-11 9 -12.5 21.5t7.5 23.5l102 128q6 7 13.5 10t16 2t15.5 -7q11 -8 12 -21t-7 -24l-103 -128q-11 -11 -25 -11zM230 -96q-12 0 -19 6q-11 9 -12 21.5t7 23.5l205 256q9 11 21.5 12t23.5 -7t12 -21t-7 -24l-205 -256q-5 -5 -12 -8
t-14 -3zM493 32q-4 0 -7 0.5t-6.5 2t-5.5 3.5q-11 9 -12.5 21.5t7.5 23.5l102 128q9 11 21.5 12t23.5 -7t12 -21t-7 -24l-103 -128q-11 -11 -25 -11zM550 -96q-12 0 -19 6q-11 9 -12 21.5t7 23.5l205 256q9 11 21.5 12t23.5 -7t12 -21t-7 -24l-205 -256q-5 -5 -12 -8t-14 -3
zM749 288q67 0 115 46.5t48 111.5q0 44 -22 80.5t-59.5 57.5t-81.5 21h-16q-12 29 -32.5 53.5t-46.5 42t-57.5 27.5t-65.5 10q-83 0 -144.5 -53t-71.5 -131h-1q-28 0 -53 -10.5t-43.5 -28.5t-29 -42t-10.5 -51q0 -35 18 -65t49.5 -48t68.5 -18zM184 570q38 29 77 38
q7 22 18 43t25.5 39t31.5 33.5t37 28.5t41 22q-9 21 -24 37.5t-33 28t-40 18t-45 6.5q-3 0 -7 -1q-3 -1 -4 -1q5 -11 7 -22t2 -24q0 -47 -32.5 -79.5t-79.5 -32.5q-4 0 -9 0.5t-9.5 1t-9.5 2.5l-8 2q-5 2 -8 4q0 -2 -1 -5q-1 -4 -1 -5q0 -28 9 -53.5t25 -46t38 -34.5z" />
    <glyph glyph-name="uniE660" unicode="&#xe660;" 
d="M32 352h960q13 0 22.5 9.5t9.5 22.5t-9.5 22.5t-22.5 9.5h-960q-13 0 -22.5 -9.5t-9.5 -22.5t9.5 -22.5t22.5 -9.5zM64 512q0 -13 9.5 -22.5t22.5 -9.5h768q13 0 22.5 9.5t9.5 22.5t-9.5 22.5t-22.5 9.5h-768q-13 0 -22.5 -9.5t-9.5 -22.5zM128 128q0 -13 9.5 -22.5
t22.5 -9.5h768q13 0 22.5 9.5t9.5 22.5t-9.5 22.5t-22.5 9.5h-768q-13 0 -22.5 -9.5t-9.5 -22.5zM64 608h352q13 0 22.5 9.5t9.5 22.5t-9.5 22.5t-22.5 9.5h-352q-13 0 -22.5 -9.5t-9.5 -22.5t9.5 -22.5t22.5 -9.5zM736 608q13 0 22.5 9.5t9.5 22.5t-9.5 22.5t-22.5 9.5
h-192q-13 0 -22.5 -9.5t-9.5 -22.5t9.5 -22.5t22.5 -9.5h192zM896 640q0 -13 9.5 -22.5t22.5 -9.5h64q13 0 22.5 9.5t9.5 22.5t-9.5 22.5t-22.5 9.5h-64q-13 0 -22.5 -9.5t-9.5 -22.5zM864 224q13 0 22.5 9.5t9.5 22.5t-9.5 22.5t-22.5 9.5h-352q-13 0 -22.5 -9.5
t-9.5 -22.5t9.5 -22.5t22.5 -9.5h352zM192 224h192q13 0 22.5 9.5t9.5 22.5t-9.5 22.5t-22.5 9.5h-192q-13 0 -22.5 -9.5t-9.5 -22.5t9.5 -22.5t22.5 -9.5z" />
    <glyph glyph-name="uniE661" unicode="&#xe661;" 
d="M795 736q-25 48 -66.5 84.5t-93 56t-107.5 19.5q-51 0 -99 -17t-86.5 -46.5t-66.5 -71.5t-41 -91q-6 1 -12 1.5t-15 0.5q-86 0 -147 -61t-61 -147t61 -147t147 -61h144q13 0 22.5 9.5t9.5 22.5t-9.5 22.5t-22.5 9.5h-144q-60 0 -102 42t-42 102t42 102t102 42
q8 0 14.5 -0.5t13.5 -2t14 -3.5l35 -12l5 37q14 88 81.5 146.5t156.5 58.5q28 0 55.5 -6.5t51.5 -19t45.5 -29.5t38.5 -39.5t28 -47.5l10 -20l25 2h4q48 0 88.5 -23.5t64 -64t23.5 -88.5q0 -73 -51.5 -124.5t-123.5 -51.5h-115q-13 0 -22.5 -9.5t-9.5 -22.5t9.5 -22.5
t22.5 -9.5h112q100 0 170 70t70 170q0 96 -66.5 165.5t-162.5 74.5zM115 -14q-11 8 -23.5 7t-21.5 -12l-44 -56q-9 -11 -7.5 -24t11.5 -21q8 -8 21 -8q7 0 14 3.5t12 9.5l45 56q7 9 5.5 22.5t-12.5 22.5zM162 10q15 0 25 12l95 119q8 11 7 23.5t-12 21t-24 7.5t-21 -12
l-94 -119q-10 -11 -8.5 -23.5t11.5 -20.5t21 -8zM597 386q-7 5 -15.5 6.5t-16.5 -1.5t-13 -10l-203 -253h128l-112 -139q-9 -11 -7.5 -24t12.5 -21q4 -3 9 -4.5t10 -1.5q15 1 25 12l197 242h-128l119 147q8 11 6.5 24.5t-11.5 22.5zM691 64q-21 17 -41 0q-2 -3 -4 -5
l-108 -136q-9 -11 -7.5 -23.5t11.5 -21.5q9 -6 20 -6q7 0 13.5 3.5t11.5 9.5l109 136q9 9 7.5 22t-12.5 21zM742 96q8 0 14.5 3.5t11.5 9.5l26 32q4 5 5.5 11t0.5 12t-3.5 11.5t-7.5 10.5q-18 15 -38 1q-4 -3 -7 -6l-26 -32q-8 -11 -6.5 -23.5t11.5 -21.5q3 -4 8.5 -6
t10.5 -2z" />
    <glyph glyph-name="uniE662" unicode="&#xe662;" 
d="M483 192l119 147q16 22 -1 41q-2 3 -4 4q-11 8 -24 7t-21 -12l-203 -251h128l-112 -139q-9 -11 -7.5 -24t12.5 -21q4 -3 9 -4.5t10 -1.5q15 1 25 12l197 242h-128zM784 704h-8q-33 72 -99.5 116t-148.5 44q-40 0 -78 -11.5t-70 -32.5t-57 -49.5t-41.5 -64t-22.5 -74.5
q-26 8 -51 8q-73 0 -124.5 -51.5t-51.5 -124.5t51.5 -124.5t124.5 -51.5h144h43l106 133q13 17 33.5 27t41.5 10q33 0 59 -21q30 -23 35 -64q5 -40 -20 -71l-8 -14h30h110h2q86 0 147 61t61 147t-61 147t-147 61zM131 18q-11 8 -23.5 7t-21.5 -12l-44 -56q-9 -11 -7.5 -24
t11.5 -21q8 -8 21 -8q7 0 14 3.5t12 9.5l45 56q7 9 5.5 22.5t-12.5 22.5zM291 218q-11 8 -23.5 7t-21.5 -12l-94 -119q-5 -7 -6.5 -15t1.5 -16t10 -13q9 -7 19 -7q5 0 9.5 1.5t8.5 4.5t8 7l94 118q6 6 7 14t-2 16t-10 14zM707 96q-25 20 -45 -5l-108 -136q-9 -11 -7.5 -23.5
t11.5 -21.5q9 -6 20 -6q7 0 13.5 3.5t11.5 9.5l109 136q9 9 7.5 22t-12.5 21zM805 218q-7 5 -15.5 6t-16 -2t-13.5 -9l-26 -32q-4 -5 -5.5 -11.5t-0.5 -12.5t3.5 -11.5t7.5 -9.5q9 -6 19 -6q3 0 6 0.5t5.5 1.5t5.5 2.5t5 3.5l4 4l26 32q4 4 5.5 10t0.5 12t-3.5 11.5
t-7.5 10.5z" />
    <glyph glyph-name="uniE663" unicode="&#xe663;" 
d="M795 702q-38 75 -110.5 118.5t-156.5 43.5q-103 0 -185 -64t-108 -162q-5 0 -13.5 1t-13.5 1q-86 0 -147 -61.5t-61 -146.5t61 -146.5t147 -61.5h144q13 0 22.5 9.5t9.5 22.5t-9.5 22.5t-22.5 9.5h-144q-60 0 -102 42t-42 102t42 102t102 42q8 0 14.5 -0.5t13.5 -2
t14 -3.5l35 -12l5 37q14 88 81.5 146.5t156.5 58.5q28 0 55.5 -6.5t51.5 -19t45.5 -29.5t38.5 -39.5t28 -47.5l10 -20l25 2h4q48 0 88.5 -23.5t64 -64t23.5 -88.5q0 -73 -51.5 -124.5t-123.5 -51.5h-115q-13 0 -22.5 -9.5t-9.5 -22.5t9.5 -22.5t22.5 -9.5h112q100 0 170 70
t70 170q0 96 -66.5 165t-162.5 73zM134 -26q9 -6 20 -6q15 0 25 13l103 128q2 3 4 7t2.5 8t0 8t-2 8t-4 7.5t-5.5 6.5q-11 8 -23.5 6.5t-21.5 -11.5l-102 -128q-9 -12 -7.5 -25t11.5 -22zM595 352q-7 6 -15.5 7t-16 -2t-13.5 -10l-201 -251h128l-112 -139q-9 -11 -7.5 -24
t12.5 -21q8 -6 19 -6q14 0 25 11l197 243h-128l119 147q8 11 6 24t-13 21zM666 -32q7 0 13.5 3.5t11.5 9.5l103 126q2 3 3.5 6.5t2.5 7t1 7t-1 7t-2 6.5t-3.5 6t-5.5 5q-11 8 -24 7t-21 -12l-102 -126q-9 -11 -7.5 -24t11.5 -21q11 -8 20 -8z" />
    </font>
</defs>
</svg>
